<svg width="139" height="25" viewBox="0 0 139 25" fill="none" xmlns="http://www.w3.org/2000/svg">
<path d="M8.856 24.8C6.18933 24.8 4.10933 24.096 2.616 22.688C1.12267 21.28 0.376 19.3173 0.376 16.8C0.376 14.5173 0.92 12.4693 2.008 10.656C3.096 8.82133 4.6 7.392 6.52 6.368C8.44 5.32267 10.5947 4.8 12.984 4.8C14.9467 4.8 16.4613 5.20533 17.528 6.016C18.616 6.82667 19.16 7.968 19.16 9.44C19.16 10.9547 18.6373 12.256 17.592 13.344C16.5467 14.432 15.0427 15.2533 13.08 15.808C11.1173 16.3627 8.792 16.6187 6.104 16.576L6.52 14.208C8.80267 14.08 10.552 13.664 11.768 12.96C13.0053 12.2347 13.624 11.2853 13.624 10.112C13.624 9.64267 13.464 9.26933 13.144 8.992C12.824 8.69333 12.408 8.544 11.896 8.544C11 8.544 10.1467 8.93867 9.336 9.728C8.54667 10.496 7.90667 11.52 7.416 12.8C6.94667 14.08 6.712 15.4347 6.712 16.864C6.712 18.3147 6.95733 19.456 7.448 20.288C7.96 21.0987 8.664 21.504 9.56 21.504C10.648 21.504 11.544 21.1093 12.248 20.32C12.952 19.5093 13.3253 18.4533 13.368 17.152C14.648 17.152 15.6187 17.3867 16.28 17.856C16.9627 18.3253 17.304 19.008 17.304 19.904C17.304 20.8 16.9307 21.6213 16.184 22.368C15.4373 23.1147 14.4133 23.7013 13.112 24.128C11.832 24.576 10.4133 24.8 8.856 24.8Z" fill="#036DE9"/>
<path d="M32.4123 16.48C31.4949 16.48 30.6949 16.4053 30.0123 16.256C29.3509 16.0853 28.6576 15.808 27.9323 15.424V11.616C28.2949 11.9147 28.7216 12.1387 29.2123 12.288C29.7029 12.416 30.2043 12.48 30.7163 12.48C31.6976 12.48 32.5829 12.2987 33.3723 11.936C34.1829 11.552 34.8123 11.0187 35.2603 10.336C35.7296 9.65333 35.9643 8.864 35.9643 7.968C35.9643 7.17867 35.6763 6.47467 35.1003 5.856C34.5456 5.23733 33.7563 4.928 32.7323 4.928C32.0923 4.928 31.4416 5.088 30.7803 5.408C30.1189 5.70667 29.4043 6.16533 28.6363 6.784V3.52C29.4469 2.90133 30.1616 2.41067 30.7803 2.048C31.4203 1.68533 32.1563 1.39733 32.9883 1.184C33.8416 0.949332 34.8336 0.831999 35.9643 0.831999C37.4363 0.831999 38.7056 1.152 39.7723 1.792C40.8603 2.41067 41.6816 3.232 42.2363 4.256C42.8123 5.28 43.1003 6.368 43.1003 7.52C43.1003 9.056 42.7056 10.5067 41.9163 11.872C41.1269 13.2373 39.9216 14.3467 38.3003 15.2C36.7003 16.0533 34.7376 16.48 32.4123 16.48ZM25.9803 24.832C24.6149 24.832 23.6229 24.4907 23.0043 23.808C22.3856 23.1253 22.0763 22.0267 22.0763 20.512C22.0763 19.5733 22.2043 18.1653 22.4603 16.288C22.7376 14.4107 23.2816 11.1573 24.0923 6.528L22.3963 3.104C24.8069 1.54667 27.0043 0.768 28.9883 0.768C30.6309 0.768 31.4523 1.77067 31.4523 3.776C31.4523 4.45867 31.1109 6.54933 30.4283 10.048C29.9589 12.5013 29.5963 14.464 29.3403 15.936C29.1056 17.3867 28.9883 18.5387 28.9883 19.392C28.9883 20.3733 29.0523 21.1627 29.1803 21.76C29.3296 22.3573 29.5856 22.9013 29.9483 23.392C28.7323 24.352 27.4096 24.832 25.9803 24.832ZM39.4843 24.8C38.4816 24.8 37.6283 24.6293 36.9243 24.288C36.2416 23.968 35.6336 23.4347 35.1003 22.688C34.5883 21.92 34.0976 20.8747 33.6283 19.552L32.1563 15.392L38.4283 12.832C39.3029 15.4347 40.2203 17.632 41.1803 19.424C42.1616 21.1947 43.1216 22.4 44.0603 23.04C43.5909 23.5093 42.8976 23.9147 41.9803 24.256C41.0629 24.6187 40.2309 24.8 39.4843 24.8ZM49.8865 24.832C48.5212 24.832 47.5292 24.4907 46.9105 23.808C46.2918 23.1253 45.9825 22.0267 45.9825 20.512C45.9825 19.552 46.1212 18.112 46.3985 16.192C46.6758 14.2507 47.2092 11.0293 47.9985 6.528L46.3025 3.104C48.7132 1.54667 50.9105 0.768 52.8945 0.768C54.5372 0.768 55.3585 1.77067 55.3585 3.776C55.3585 4.24533 55.2305 5.20533 54.9745 6.656C54.7398 8.08533 54.4732 9.58933 54.1745 11.168C53.7692 13.344 53.4492 15.1147 53.2145 16.48C53.0012 17.8453 52.8945 18.816 52.8945 19.392C52.8945 20.3733 52.9585 21.1627 53.0865 21.76C53.2358 22.3573 53.4918 22.9013 53.8545 23.392C52.7665 24.352 51.4438 24.832 49.8865 24.832ZM58.3665 24.8C57.1505 24.8 55.9985 24.6613 54.9105 24.384C53.8438 24.128 52.6705 23.6907 51.3905 23.072V19.648H58.0785C59.7212 19.4133 61.2998 18.9973 62.8145 18.4C63.0492 18.9547 63.1665 19.6373 63.1665 20.448C63.1665 21.8347 62.7505 22.912 61.9185 23.68C61.0865 24.4267 59.9025 24.8 58.3665 24.8ZM55.4865 16.032C54.7825 16.032 53.8758 15.8933 52.7665 15.616L53.4065 11.968C54.2385 12.1813 55.0812 12.288 55.9345 12.288L58.8145 11.552C58.8572 11.6587 58.8785 11.776 58.8785 11.904C58.8998 12.0107 58.9212 12.128 58.9425 12.256C58.9638 12.384 58.9745 12.5227 58.9745 12.672C58.9745 12.8 58.9745 12.9387 58.9745 13.088C58.9745 14.0053 58.6652 14.7307 58.0465 15.264C57.4278 15.776 56.5745 16.032 55.4865 16.032ZM58.3985 8.224C57.6092 8.224 56.6278 8.096 55.4545 7.84C54.2812 7.56267 53.3852 7.264 52.7665 6.944L53.1505 2.624C54.8998 2.624 56.5105 2.50667 57.9825 2.272C59.4758 2.03733 61.2465 1.664 63.2945 1.152C63.4652 1.13067 63.6252 1.09867 63.7745 1.056C63.9452 1.01333 64.1052 0.970666 64.2545 0.927999C64.4252 1.71733 64.5105 2.41067 64.5105 3.008C64.5105 4.62933 63.9665 5.90933 62.8785 6.848C61.7905 7.76533 60.2972 8.224 58.3985 8.224ZM67.8035 24.928C66.8222 24.928 66.0755 24.6613 65.5635 24.128C65.0728 23.5947 64.8275 22.816 64.8275 21.792C64.8275 20.4693 65.2862 18.656 66.2035 16.352C67.1422 14.0267 68.8595 10.4213 71.3555 5.536L70.2995 2.816C71.4942 2.09067 72.5822 1.57867 73.5635 1.28C74.5448 0.959999 75.6115 0.799999 76.7635 0.799999C77.9795 0.799999 78.8542 1.06667 79.3875 1.6C80.3902 1.06667 81.2862 0.799999 82.0755 0.799999C83.2488 0.799999 84.1022 1.17333 84.6355 1.92C85.1688 2.66667 85.4355 3.86133 85.4355 5.504C85.4355 7.04 85.4248 8.17067 85.4035 8.896C85.3822 11.6053 85.3928 13.7813 85.4355 15.424C85.4995 17.0453 85.6808 18.56 85.9795 19.968C86.2782 21.376 86.7688 22.5493 87.4515 23.488C86.2142 24.448 84.8808 24.928 83.4515 24.928C82.3208 24.928 81.4035 24.576 80.6995 23.872C79.9955 23.168 79.4728 22.0693 79.1315 20.576C78.8115 19.0613 78.6622 17.088 78.6835 14.656C78.6835 12.8427 78.6942 11.0933 78.7155 9.408C78.7582 7.70133 78.8115 6.24 78.8755 5.024H78.4915C76.3795 8.416 74.7048 11.4987 73.4675 14.272C72.2302 17.024 71.6115 19.0933 71.6115 20.48C71.6115 21.0987 71.6648 21.6427 71.7715 22.112C71.8782 22.5813 72.0488 23.04 72.2835 23.488C71.6862 23.9147 70.9822 24.256 70.1715 24.512C69.3608 24.7893 68.5715 24.928 67.8035 24.928ZM70.5875 15.04H81.6595L81.0195 18.848H69.8835L70.5875 15.04ZM99.0548 24.8C96.4094 24.8 94.3401 24.3307 92.8468 23.392C91.3748 22.432 90.6388 21.1093 90.6388 19.424C90.6388 18.5493 90.7774 17.2373 91.0548 15.488C91.3321 13.7387 91.8654 10.752 92.6548 6.528L90.9588 3.104C93.3694 1.54667 95.5668 0.768 97.5508 0.768C99.1934 0.768 100.015 1.77067 100.015 3.776C100.015 4.75733 99.5668 7.85067 98.6708 13.056C98.3934 14.7413 98.1374 16.3413 97.9028 17.856C97.6681 19.3493 97.5508 20.2987 97.5508 20.704C98.1908 21.0027 98.9054 21.152 99.6948 21.152C101.145 21.152 102.436 20.7573 103.567 19.968C104.719 19.1573 105.615 18.0373 106.255 16.608C106.895 15.1573 107.215 13.5253 107.215 11.712C107.215 9.57867 106.713 7.91467 105.711 6.72C104.729 5.52533 103.364 4.928 101.615 4.928C101.039 4.928 100.441 5.04533 99.8228 5.28C99.2254 5.49333 98.5748 5.83467 97.8708 6.304C97.7641 6.38933 97.6468 6.47467 97.5188 6.56C97.4121 6.624 97.3054 6.69866 97.1988 6.784L96.2388 4.16C96.4094 4.01067 96.5801 3.872 96.7508 3.744C96.9428 3.59467 97.1241 3.44533 97.2948 3.296C98.1268 2.656 98.9054 2.15467 99.6308 1.792C100.356 1.42933 101.103 1.17333 101.871 1.024C102.66 0.853333 103.545 0.768 104.527 0.768C106.425 0.768 108.111 1.184 109.583 2.016C111.055 2.82667 112.185 3.97867 112.975 5.472C113.785 6.944 114.191 8.65067 114.191 10.592C114.191 13.344 113.551 15.7973 112.271 17.952C110.991 20.1067 109.199 21.792 106.895 23.008C104.591 24.2027 101.977 24.8 99.0548 24.8ZM126.397 24.8C123.282 24.8 120.978 24.4053 119.485 23.616C117.992 22.8267 117.245 21.76 117.245 20.416C117.245 19.84 117.384 19.2533 117.661 18.656C117.938 18.0373 118.322 17.5147 118.813 17.088C119.709 18.3467 120.733 19.328 121.885 20.032C123.058 20.736 124.445 21.088 126.045 21.088C127.325 21.088 128.37 20.8853 129.181 20.48C129.992 20.0747 130.397 19.4667 130.397 18.656C130.397 18.2293 130.216 17.8667 129.853 17.568C129.512 17.248 129.074 16.9813 128.541 16.768C128.008 16.5333 127.25 16.2453 126.269 15.904C124.69 15.3493 123.378 14.816 122.333 14.304C121.309 13.792 120.413 13.0667 119.645 12.128C118.898 11.1893 118.525 10.0053 118.525 8.576C118.525 6.86933 119.058 5.42933 120.125 4.256C121.213 3.08267 122.664 2.208 124.477 1.632C126.312 1.056 128.349 0.768 130.589 0.768C132.253 0.768 133.704 0.949333 134.941 1.312C136.2 1.65333 137.16 2.144 137.821 2.784C138.482 3.424 138.813 4.14933 138.813 4.96C138.813 6.048 138.429 6.90133 137.661 7.52C136.914 8.13867 135.986 8.448 134.877 8.448C133.832 8.448 132.882 8.16 132.029 7.584C131.176 6.98667 130.504 6.12267 130.013 4.992C128.712 5.12 127.634 5.44 126.781 5.952C125.928 6.44267 125.501 7.05067 125.501 7.776C125.501 8.224 125.682 8.608 126.045 8.928C126.408 9.248 126.866 9.52533 127.421 9.76C127.997 9.97333 128.776 10.24 129.757 10.56C131.357 11.072 132.658 11.5733 133.661 12.064C134.664 12.5333 135.528 13.216 136.253 14.112C137 14.9867 137.373 16.1173 137.373 17.504C137.373 19.0827 136.829 20.4267 135.741 21.536C134.674 22.624 133.298 23.4453 131.613 24C129.928 24.5333 128.189 24.8 126.397 24.8Z" fill="white"/>
<path d="M2.616 22.688L1.92999 23.4156H1.92999L2.616 22.688ZM2.008 10.656L2.8655 11.1705L2.86813 11.1661L2.008 10.656ZM6.52 6.368L6.99061 7.25039L6.99817 7.24627L6.52 6.368ZM17.528 6.016L16.9229 6.8122L16.9305 6.81788L17.528 6.016ZM13.08 15.808L12.808 14.8457L13.08 15.808ZM6.104 16.576L5.11908 16.403L4.9163 17.5573L6.08813 17.5759L6.104 16.576ZM6.52 14.208L6.46401 13.2096L5.67229 13.254L5.53508 14.035L6.52 14.208ZM11.768 12.96L12.269 13.8254L12.2737 13.8227L11.768 12.96ZM13.144 8.992L12.4617 9.72305L12.4752 9.73562L12.4891 9.74769L13.144 8.992ZM9.336 9.728L10.0334 10.4447L10.0336 10.4445L9.336 9.728ZM7.416 12.8L6.48225 12.4421L6.47964 12.4489L6.47712 12.4557L7.416 12.8ZM7.448 20.288L6.58663 20.796L6.59437 20.8091L6.60251 20.822L7.448 20.288ZM12.248 20.32L12.9944 20.9857L13.003 20.9757L12.248 20.32ZM13.368 17.152V16.152H12.4003L12.3685 17.1192L13.368 17.152ZM16.28 17.856L15.7013 18.6715L15.7073 18.6758L15.7135 18.68L16.28 17.856ZM16.184 22.368L15.4769 21.6609H15.4769L16.184 22.368ZM13.112 24.128L12.8005 23.1778L12.791 23.1809L12.7816 23.1841L13.112 24.128ZM8.856 23.8C6.36551 23.8 4.55941 23.146 3.30201 21.9604L1.92999 23.4156C3.65926 25.046 6.01316 25.8 8.856 25.8V23.8ZM3.30201 21.9604C2.05306 20.7828 1.376 19.1088 1.376 16.8H-0.624C-0.624 19.5258 0.192275 21.7772 1.92999 23.4156L3.30201 21.9604ZM1.376 16.8C1.376 14.6837 1.87813 12.8161 2.86549 11.1705L1.15051 10.1415C-0.0381293 12.1226 -0.624 14.351 -0.624 16.8H1.376ZM2.86813 11.1661C3.86083 9.49211 5.22862 8.19007 6.99059 7.25035L6.04941 5.48565C3.97138 6.59393 2.33117 8.15055 1.14787 10.1459L2.86813 11.1661ZM6.99817 7.24627C8.75809 6.28809 10.7458 5.8 12.984 5.8V3.8C10.4435 3.8 8.12191 4.35724 6.04183 5.48973L6.99817 7.24627ZM12.984 5.8C14.8257 5.8 16.0946 6.18263 16.9229 6.81216L18.1331 5.21984C16.8281 4.22803 15.0676 3.8 12.984 3.8V5.8ZM16.9305 6.81788C17.7413 7.42198 18.16 8.25275 18.16 9.44H20.16C20.16 7.68324 19.4907 6.23135 18.1255 5.21412L16.9305 6.81788ZM18.16 9.44C18.16 10.6975 17.7365 11.7502 16.8709 12.6512L18.3131 14.0368C19.5382 12.7618 20.16 11.2118 20.16 9.44H18.16ZM16.8709 12.6512C15.9846 13.5737 14.6577 14.323 12.808 14.8457L13.352 16.7703C15.4277 16.1837 17.1087 15.2903 18.3131 14.0368L16.8709 12.6512ZM12.808 14.8457C10.9633 15.367 8.73959 15.6177 6.11987 15.5761L6.08813 17.5759C8.84441 17.6196 11.2714 17.3583 13.352 16.7703L12.808 14.8457ZM7.08892 16.749L7.50492 14.381L5.53508 14.035L5.11908 16.403L7.08892 16.749ZM6.57599 15.2064C8.92821 15.0745 10.8577 14.6425 12.269 13.8254L11.267 12.0946C10.2463 12.6855 8.67712 13.0855 6.46401 13.2096L6.57599 15.2064ZM12.2737 13.8227C13.7376 12.9646 14.624 11.7238 14.624 10.112H12.624C12.624 10.8469 12.2731 11.5047 11.2623 12.0973L12.2737 13.8227ZM14.624 10.112C14.624 9.38792 14.3634 8.72552 13.7989 8.23631L12.4891 9.74769C12.5646 9.81314 12.624 9.89741 12.624 10.112H14.624ZM13.8263 8.26094C13.2901 7.7605 12.6154 7.544 11.896 7.544V9.544C12.2006 9.544 12.3579 9.62617 12.4617 9.72305L13.8263 8.26094ZM11.896 7.544C10.6755 7.544 9.58432 8.09048 8.63838 9.01153L10.0336 10.4445C10.709 9.78685 11.3245 9.544 11.896 9.544V7.544ZM8.63865 9.01127C7.72327 9.90191 7.01244 11.059 6.48225 12.4421L8.34975 13.1579C8.8009 11.981 9.37006 11.0901 10.0334 10.4447L8.63865 9.01127ZM6.47712 12.4557C5.96542 13.8513 5.712 15.323 5.712 16.864H7.712C7.712 15.5464 7.92791 14.3087 8.35488 13.1443L6.47712 12.4557ZM5.712 16.864C5.712 18.4102 5.97067 19.7515 6.58663 20.796L8.30937 19.78C7.94399 19.1605 7.712 18.2191 7.712 16.864H5.712ZM6.60251 20.822C7.2823 21.8983 8.29296 22.504 9.56 22.504V20.504C9.03504 20.504 8.6377 20.299 8.29349 19.754L6.60251 20.822ZM9.56 22.504C10.9237 22.504 12.0944 21.9945 12.9943 20.9856L11.5017 19.6544C10.9936 20.2241 10.3723 20.504 9.56 20.504V22.504ZM13.003 20.9757C13.8877 19.9569 14.3189 18.6651 14.3675 17.1848L12.3685 17.1192C12.3317 18.2416 12.0163 19.0617 11.493 19.6643L13.003 20.9757ZM13.368 18.152C14.5516 18.152 15.2813 18.3735 15.7013 18.6715L16.8587 17.0405C15.956 16.3998 14.7444 16.152 13.368 16.152V18.152ZM15.7135 18.68C16.0997 18.9456 16.304 19.3056 16.304 19.904H18.304C18.304 18.7104 17.8256 17.7051 16.8465 17.032L15.7135 18.68ZM16.304 19.904C16.304 20.4878 16.0721 21.0657 15.4769 21.6609L16.8911 23.0751C17.7893 22.1769 18.304 21.1122 18.304 19.904H16.304ZM15.4769 21.6609C14.8691 22.2686 13.9954 22.786 12.8005 23.1778L13.4236 25.0782C14.8312 24.6167 16.0055 23.9607 16.8911 23.0751L15.4769 21.6609ZM12.7816 23.1841C11.6223 23.5899 10.3173 23.8 8.856 23.8V25.8C10.5094 25.8 12.0417 25.5621 13.4424 25.0719L12.7816 23.1841ZM30.0123 16.256L29.7624 17.2243L29.7804 17.2289L29.7986 17.2329L30.0123 16.256ZM27.9323 15.424H26.9323V16.0261L27.4644 16.3078L27.9323 15.424ZM27.9323 11.616L28.568 10.8441L26.9323 9.49702V11.616H27.9323ZM29.2122 12.288L28.9211 13.2447L28.9403 13.2505L28.9598 13.2556L29.2122 12.288ZM33.3722 11.936L33.7898 12.8447L33.8003 12.8397L33.3722 11.936ZM35.2603 10.336L34.4362 9.76947L34.4301 9.77834L34.4242 9.78734L35.2603 10.336ZM35.1003 5.856L34.3557 6.52354L34.362 6.53054L34.3684 6.53742L35.1003 5.856ZM30.7803 5.408L31.1918 6.31937L31.2039 6.31392L31.2158 6.30816L30.7803 5.408ZM28.6362 6.784H27.6362V8.87366L29.2636 7.56275L28.6362 6.784ZM28.6362 3.52L28.0296 2.72505L27.6362 3.02522V3.52H28.6362ZM30.7803 2.048L30.2872 1.17798L30.2809 1.18159L30.2745 1.1853L30.7803 2.048ZM32.9883 1.184L33.2366 2.15266L33.245 2.15051L33.2534 2.1482L32.9883 1.184ZM39.7723 1.792L39.2578 2.64949L39.2678 2.65551L39.278 2.66129L39.7723 1.792ZM42.2363 4.256L41.357 4.73228L41.3608 4.7393L41.3647 4.74626L42.2363 4.256ZM41.9163 11.872L42.782 12.3725L41.9163 11.872ZM38.3003 15.2L37.8345 14.3151L37.8297 14.3176L38.3003 15.2ZM23.0042 23.808L22.2633 24.4795L23.0042 23.808ZM22.4603 16.288L21.4709 16.1418L21.4694 16.1529L22.4603 16.288ZM24.0923 6.528L25.0773 6.70049L25.1338 6.37775L24.9883 6.08414L24.0923 6.528ZM22.3962 3.104L21.8536 2.26403L21.1041 2.74824L21.5002 3.54786L22.3962 3.104ZM30.4282 10.048L29.4468 9.85649L29.4461 9.8601L30.4282 10.048ZM29.3403 15.936L28.355 15.7646L28.3531 15.7763L29.3403 15.936ZM29.1803 21.76L28.2024 21.9695L28.206 21.9861L28.2101 22.0025L29.1803 21.76ZM29.9482 23.392L30.5679 24.1769L31.3282 23.5766L30.7524 22.7976L29.9482 23.392ZM36.9243 24.288L37.3606 23.3881L37.3487 23.3825L36.9243 24.288ZM35.1003 22.688L34.2682 23.2427L34.2771 23.2561L34.2865 23.2692L35.1003 22.688ZM33.6283 19.552L32.6855 19.8856L32.6858 19.8864L33.6283 19.552ZM32.1562 15.392L31.7784 14.4662L30.8954 14.8265L31.2135 15.7256L32.1562 15.392ZM38.4283 12.832L39.3762 12.5134L39.0368 11.5035L38.0504 11.9062L38.4283 12.832ZM41.1803 19.424L40.2988 19.8962L40.3021 19.9025L40.3056 19.9087L41.1803 19.424ZM44.0602 23.04L44.7674 23.7471L45.6208 22.8937L44.6236 22.2138L44.0602 23.04ZM41.9803 24.256L41.6315 23.3188L41.622 23.3223L41.6126 23.326L41.9803 24.256ZM32.4123 15.48C31.5458 15.48 30.8206 15.4092 30.2259 15.2791L29.7986 17.2329C30.5693 17.4015 31.444 17.48 32.4123 17.48V15.48ZM30.2621 15.2877C29.6899 15.14 29.0697 14.8947 28.4001 14.5402L27.4644 16.3078C28.2454 16.7213 29.0119 17.0306 29.7624 17.2243L30.2621 15.2877ZM28.9323 15.424V11.616H26.9323V15.424H28.9323ZM27.2965 12.3879C27.7698 12.7776 28.3161 13.0606 28.9211 13.2447L29.5034 11.3313C29.127 11.2168 28.8201 11.0517 28.568 10.8441L27.2965 12.3879ZM28.9598 13.2556C29.5337 13.4053 30.1199 13.48 30.7163 13.48V11.48C30.2886 11.48 29.8721 11.4267 29.4647 11.3204L28.9598 13.2556ZM30.7163 13.48C31.823 13.48 32.8534 13.2749 33.7897 12.8447L32.9548 11.0273C32.3124 11.3225 31.5722 11.48 30.7163 11.48V13.48ZM33.8003 12.8397C34.7601 12.3851 35.5377 11.7358 36.0963 10.8847L34.4242 9.78734C34.0868 10.3015 33.6057 10.7189 32.9442 11.0323L33.8003 12.8397ZM36.0843 10.9025C36.6777 10.0394 36.9642 9.04897 36.9642 7.968H34.9642C34.9642 8.67903 34.7815 9.26723 34.4362 9.76947L36.0843 10.9025ZM36.9642 7.968C36.9642 6.90683 36.5671 5.96395 35.8321 5.17458L34.3684 6.53742C34.7854 6.98538 34.9642 7.4505 34.9642 7.968H36.9642ZM35.8448 5.18845C35.0576 4.31036 33.9691 3.928 32.7323 3.928V5.928C33.5434 5.928 34.0336 6.1643 34.3557 6.52354L35.8448 5.18845ZM32.7323 3.928C31.9205 3.928 31.1217 4.13186 30.3447 4.50784L31.2158 6.30816C31.7615 6.04414 32.264 5.928 32.7323 5.928V3.928ZM30.3687 4.49663C29.6081 4.84011 28.821 5.35103 28.0089 6.00525L29.2636 7.56275C29.9875 6.97963 30.6297 6.57322 31.1918 6.31937L30.3687 4.49663ZM29.6362 6.784V3.52H27.6362V6.784H29.6362ZM29.2429 4.31495C30.0336 3.71154 30.7135 3.24631 31.286 2.9107L30.2745 1.1853C29.6097 1.57503 28.8602 2.09112 28.0296 2.72505L29.2429 4.31495ZM31.2733 2.91802C31.8249 2.60545 32.4762 2.34763 33.2366 2.15266L32.7399 0.215334C31.8363 0.447033 31.0156 0.765213 30.2872 1.17798L31.2733 2.91802ZM33.2534 2.1482C34.0003 1.9428 34.8997 1.832 35.9642 1.832V-0.168001C34.7675 -0.168001 33.6828 -0.0441399 32.7231 0.219793L33.2534 2.1482ZM35.9642 1.832C37.2885 1.832 38.3729 2.1186 39.2578 2.64949L40.2867 0.934507C39.0382 0.1854 37.584 -0.168001 35.9642 -0.168001V1.832ZM39.278 2.66129C40.216 3.19472 40.898 3.88504 41.357 4.73228L43.1155 3.77971C42.4651 2.57895 41.5045 1.62662 40.2666 0.92271L39.278 2.66129ZM41.3647 4.74626C41.8582 5.62369 42.1003 6.54327 42.1003 7.52H44.1003C44.1003 6.19273 43.7663 4.93631 43.1078 3.76574L41.3647 4.74626ZM42.1003 7.52C42.1003 8.87541 41.7544 10.154 41.0505 11.3715L42.782 12.3725C43.6568 10.8593 44.1003 9.23659 44.1003 7.52H42.1003ZM41.0505 11.3715C40.37 12.5486 39.3164 13.5351 37.8345 14.3151L38.766 16.0849C40.5267 15.1582 41.8838 13.9261 42.782 12.3725L41.0505 11.3715ZM37.8297 14.3176C36.4097 15.075 34.6186 15.48 32.4123 15.48V17.48C34.8566 17.48 36.9908 17.0317 38.7708 16.0824L37.8297 14.3176ZM25.9803 23.832C24.76 23.832 24.0985 23.5263 23.7452 23.1365L22.2633 24.4795C23.1474 25.4551 24.4698 25.832 25.9803 25.832V23.832ZM23.7452 23.1365C23.3721 22.7248 23.0763 21.9284 23.0763 20.512H21.0763C21.0763 22.125 21.399 23.5259 22.2633 24.4795L23.7452 23.1365ZM23.0763 20.512C23.0763 19.644 23.1964 18.2911 23.4511 16.4231L21.4694 16.1529C21.2121 18.0396 21.0763 19.5027 21.0763 20.512H23.0763ZM23.4495 16.4341C23.7247 14.5715 24.2665 11.3301 25.0773 6.70049L23.1072 6.35551C22.2966 10.9846 21.7505 14.2498 21.471 16.1419L23.4495 16.4341ZM24.9883 6.08414L23.2923 2.66014L21.5002 3.54786L23.1962 6.97186L24.9883 6.08414ZM22.9389 3.94397C25.2563 2.44686 27.2647 1.768 28.9883 1.768V-0.232C26.7438 -0.232 24.3575 0.646477 21.8536 2.26403L22.9389 3.94397ZM28.9883 1.768C29.5969 1.768 29.891 1.9441 30.0627 2.15368C30.2656 2.40146 30.4523 2.8844 30.4523 3.776H32.4523C32.4523 2.66227 32.2282 1.64121 31.6098 0.886314C30.9602 0.0932331 30.0222 -0.232 28.9883 -0.232V1.768ZM30.4523 3.776C30.4523 4.02203 30.3825 4.63393 30.2093 5.69487C30.041 6.72554 29.7873 8.11146 29.4468 9.85649L31.4097 10.2395C31.7519 8.48587 32.0101 7.07713 32.1832 6.01713C32.3513 4.9874 32.4523 4.21263 32.4523 3.776H30.4523ZM29.4461 9.8601C28.9763 12.3158 28.6124 14.2847 28.355 15.7647L30.3255 16.1073C30.5801 14.6433 30.9416 12.6868 31.4104 10.2359L29.4461 9.8601ZM28.3531 15.7763C28.115 17.2479 27.9883 18.4605 27.9883 19.392H29.9883C29.9883 18.6169 30.0961 17.5254 30.3274 16.0957L28.3531 15.7763ZM27.9883 19.392C27.9883 20.4069 28.0536 21.2748 28.2024 21.9695L30.1581 21.5505C30.0509 21.0506 29.9883 20.3398 29.9883 19.392H27.9883ZM28.2101 22.0025C28.3909 22.7257 28.7029 23.3895 29.1441 23.9864L30.7524 22.7976C30.4683 22.4132 30.2683 21.989 30.1504 21.5175L28.2101 22.0025ZM29.3286 22.6071C28.2733 23.4403 27.1654 23.832 25.9803 23.832V25.832C27.6538 25.832 29.1912 25.2637 30.5679 24.1769L29.3286 22.6071ZM39.4843 23.8C38.5916 23.8 37.8958 23.6477 37.3605 23.3882L36.488 25.1878C37.3607 25.6109 38.3716 25.8 39.4843 25.8V23.8ZM37.3487 23.3825C36.8519 23.1497 36.3691 22.7439 35.914 22.1068L34.2865 23.2692C34.8981 24.1255 35.6313 24.7863 36.4998 25.1935L37.3487 23.3825ZM35.9323 22.1333C35.4832 21.4596 35.0251 20.4984 34.5707 19.2176L32.6858 19.8864C33.17 21.251 33.6933 22.3804 34.2682 23.2427L35.9323 22.1333ZM34.571 19.2184L33.099 15.0584L31.2135 15.7256L32.6855 19.8856L34.571 19.2184ZM32.5341 16.3178L38.8061 13.7578L38.0504 11.9062L31.7784 14.4662L32.5341 16.3178ZM37.4803 13.1506C38.3671 15.7891 39.305 18.0413 40.2988 19.8962L42.0617 18.9518C41.1355 17.2227 40.2388 15.0802 39.3762 12.5134L37.4803 13.1506ZM40.3056 19.9087C41.3122 21.725 42.3644 23.0941 43.4969 23.8662L44.6236 22.2138C43.8787 21.7059 43.011 20.6644 42.0549 18.9393L40.3056 19.9087ZM43.3531 22.3329C43.0218 22.6642 42.4728 23.0057 41.6315 23.3188L42.329 25.1932C43.3224 24.8236 44.16 24.3544 44.7674 23.7471L43.3531 22.3329ZM41.6126 23.326C40.7768 23.6565 40.0718 23.8 39.4843 23.8V25.8C40.3901 25.8 41.3491 25.5808 42.3479 25.186L41.6126 23.326ZM46.9105 23.808L46.1695 24.4795L46.9105 23.808ZM46.3985 16.192L47.3882 16.335L47.3885 16.3334L46.3985 16.192ZM47.9985 6.528L48.9835 6.70072L49.0401 6.37786L48.8946 6.08414L47.9985 6.528ZM46.3025 3.104L45.7599 2.26403L45.0103 2.74824L45.4064 3.54786L46.3025 3.104ZM54.9745 6.656L53.9896 6.4822L53.9877 6.49399L54.9745 6.656ZM54.1745 11.168L53.1919 10.9821L53.1914 10.9849L54.1745 11.168ZM53.2145 16.48L52.229 16.3106L52.2277 16.3181L52.2265 16.3256L53.2145 16.48ZM53.0865 21.76L52.1087 21.9695L52.1122 21.9861L52.1164 22.0025L53.0865 21.76ZM53.8545 23.392L54.5161 24.1418L55.2038 23.5351L54.6587 22.7976L53.8545 23.392ZM54.9105 24.384L55.1575 23.4149L55.1439 23.4116L54.9105 24.384ZM51.3905 23.072H50.3905V23.6993L50.9553 23.9723L51.3905 23.072ZM51.3905 19.648V18.648H50.3905V19.648H51.3905ZM58.0785 19.648V20.648H58.1496L58.2199 20.638L58.0785 19.648ZM62.8145 18.4L63.7355 18.0104L63.3553 17.1118L62.4476 17.4697L62.8145 18.4ZM61.9185 23.68L62.5865 24.4243L62.5968 24.4148L61.9185 23.68ZM52.7665 15.616L51.7815 15.4432L51.6206 16.3603L52.524 16.5861L52.7665 15.616ZM53.4065 11.968L53.6549 10.9993L52.6082 10.731L52.4215 11.7952L53.4065 11.968ZM55.9345 12.288V13.288H56.0603L56.1821 13.2569L55.9345 12.288ZM58.8145 11.552L59.743 11.1806L59.4171 10.3659L58.5669 10.5831L58.8145 11.552ZM58.8785 11.904H57.8785V12.003L57.8979 12.1001L58.8785 11.904ZM58.9425 12.256L59.9289 12.0916V12.0916L58.9425 12.256ZM58.0465 15.264L58.6841 16.0344L58.6918 16.028L58.6994 16.0214L58.0465 15.264ZM55.4545 7.84L55.2245 8.81318L55.2329 8.81517L55.2413 8.81702L55.4545 7.84ZM52.7665 6.944L51.7704 6.85546L51.711 7.5239L52.3071 7.83222L52.7665 6.944ZM53.1505 2.624V1.624H52.2354L52.1544 2.53546L53.1505 2.624ZM57.9825 2.272L57.8273 1.28412L57.8251 1.28447L57.9825 2.272ZM63.2945 1.152L63.1705 0.159719L63.1105 0.16721L63.052 0.181856L63.2945 1.152ZM63.7745 1.056L63.532 0.0858593L63.5158 0.0898991L63.4998 0.0944748L63.7745 1.056ZM64.2545 0.927999L65.2319 0.716667L65.0063 -0.326811L63.9798 -0.0335255L64.2545 0.927999ZM62.8785 6.848L63.5231 7.61257L63.5317 7.60516L62.8785 6.848ZM49.8865 23.832C48.6662 23.832 48.0047 23.5263 47.6515 23.1365L46.1695 24.4795C47.0536 25.4551 48.3761 25.832 49.8865 25.832V23.832ZM47.6515 23.1365C47.2784 22.7248 46.9825 21.9284 46.9825 20.512H44.9825C44.9825 22.125 45.3053 23.5259 46.1695 24.4795L47.6515 23.1365ZM46.9825 20.512C46.9825 19.6268 47.1123 18.2452 47.3882 16.335L45.4088 16.049C45.13 17.9788 44.9825 19.4772 44.9825 20.512H46.9825ZM47.3885 16.3334C47.6633 14.4092 48.1942 11.2016 48.9835 6.70072L47.0135 6.35528C46.2241 10.857 45.6883 14.0921 45.4086 16.0506L47.3885 16.3334ZM48.8946 6.08414L47.1986 2.66014L45.4064 3.54786L47.1024 6.97186L48.8946 6.08414ZM46.8451 3.94397C49.1626 2.44686 51.1709 1.768 52.8945 1.768V-0.232C50.6501 -0.232 48.2638 0.646477 45.7599 2.26403L46.8451 3.94397ZM52.8945 1.768C53.5032 1.768 53.7972 1.9441 53.9689 2.15368C54.1719 2.40146 54.3585 2.8844 54.3585 3.776H56.3585C56.3585 2.66227 56.1345 1.64121 55.5161 0.886314C54.8664 0.0932331 53.9285 -0.232 52.8945 -0.232V1.768ZM54.3585 3.776C54.3585 4.1422 54.2488 5.01396 53.9897 6.48221L55.9593 6.82978C56.2122 5.39671 56.3585 4.34847 56.3585 3.776H54.3585ZM53.9877 6.49399C53.7545 7.91454 53.4893 9.41054 53.1919 10.9821L55.1571 11.3539C55.4571 9.76813 55.7252 8.25612 55.9613 6.81801L53.9877 6.49399ZM53.1914 10.9849C52.7857 13.1631 52.4647 14.9388 52.229 16.3106L54.2001 16.6494C54.4336 15.2905 54.7527 13.5249 55.1576 11.3511L53.1914 10.9849ZM52.2265 16.3256C52.0131 17.6911 51.8945 18.7304 51.8945 19.392H53.8945C53.8945 18.9016 53.9892 17.9995 54.2025 16.6344L52.2265 16.3256ZM51.8945 19.392C51.8945 20.4069 51.9598 21.2748 52.1087 21.9695L54.0643 21.5505C53.9572 21.0506 53.8945 20.3398 53.8945 19.392H51.8945ZM52.1164 22.0025C52.2971 22.7257 52.6091 23.3895 53.0503 23.9864L54.6587 22.7976C54.3746 22.4132 54.1745 21.989 54.0566 21.5175L52.1164 22.0025ZM53.1929 22.6422C52.3016 23.4286 51.2196 23.832 49.8865 23.832V25.832C51.6681 25.832 53.2314 25.2754 54.5161 24.1418L53.1929 22.6422ZM58.3665 23.8C57.227 23.8 56.1584 23.6701 55.1575 23.415L54.6635 25.353C55.8386 25.6525 57.074 25.8 58.3665 25.8V23.8ZM55.1439 23.4116C54.1638 23.1764 53.059 22.7678 51.8257 22.1716L50.9553 23.9723C52.282 24.6136 53.5239 25.0796 54.6771 25.3564L55.1439 23.4116ZM52.3905 23.072V19.648H50.3905V23.072H52.3905ZM51.3905 20.648H58.0785V18.648H51.3905V20.648ZM58.2199 20.638C59.9383 20.3925 61.5928 19.9568 63.1814 19.3303L62.4476 17.4697C61.0069 18.0379 59.504 18.4342 57.9371 18.6581L58.2199 20.638ZM61.8935 18.7896C62.0614 19.1863 62.1665 19.7275 62.1665 20.448H64.1665C64.1665 19.5472 64.037 18.723 63.7355 18.0104L61.8935 18.7896ZM62.1665 20.448C62.1665 21.6231 61.8223 22.4079 61.2402 22.9452L62.5968 24.4148C63.6787 23.4161 64.1665 22.0462 64.1665 20.448H62.1665ZM61.2506 22.9358C60.661 23.4648 59.7487 23.8 58.3665 23.8V25.8C60.0563 25.8 61.512 25.3885 62.5864 24.4242L61.2506 22.9358ZM55.4865 15.032C54.8989 15.032 54.0817 14.914 53.009 14.6459L52.524 16.5861C53.6699 16.8726 54.6661 17.032 55.4865 17.032V15.032ZM53.7515 15.7888L54.3915 12.1408L52.4215 11.7952L51.7815 15.4432L53.7515 15.7888ZM53.1581 12.9367C54.0707 13.1707 54.9968 13.288 55.9345 13.288V11.288C55.1655 11.288 54.4063 11.192 53.6549 10.9993L53.1581 12.9367ZM56.1821 13.2569L59.0621 12.5209L58.5669 10.5831L55.6869 11.3191L56.1821 13.2569ZM57.886 11.9234C57.8816 11.9123 57.8795 11.9036 57.8786 11.8989C57.8778 11.8944 57.8785 11.8956 57.8785 11.904H59.8785C59.8785 11.6633 59.838 11.4182 59.743 11.1806L57.886 11.9234ZM57.8979 12.1001C57.9168 12.1945 57.9362 12.3011 57.9561 12.4204L59.9289 12.0916C59.9061 11.9549 59.8829 11.8269 59.8591 11.7079L57.8979 12.1001ZM57.9561 12.4204C57.9672 12.4867 57.9745 12.5697 57.9745 12.672H59.9745C59.9745 12.4756 59.9605 12.2813 59.9289 12.0916L57.9561 12.4204ZM57.9745 12.672C57.9745 12.6723 57.9745 12.6725 57.9745 12.6728C57.9745 12.673 57.9745 12.6733 57.9745 12.6735C57.9745 12.6737 57.9745 12.674 57.9745 12.6743C57.9745 12.6745 57.9745 12.6748 57.9745 12.675C57.9745 12.6753 57.9745 12.6755 57.9745 12.6758C57.9745 12.676 57.9745 12.6763 57.9745 12.6765C57.9745 12.6768 57.9745 12.677 57.9745 12.6773C57.9745 12.6775 57.9745 12.6778 57.9745 12.678C57.9745 12.6783 57.9745 12.6785 57.9745 12.6788C57.9745 12.679 57.9745 12.6793 57.9745 12.6795C57.9745 12.6798 57.9745 12.68 57.9745 12.6803C57.9745 12.6805 57.9745 12.6808 57.9745 12.681C57.9745 12.6813 57.9745 12.6815 57.9745 12.6818C57.9745 12.682 57.9745 12.6823 57.9745 12.6825C57.9745 12.6828 57.9745 12.683 57.9745 12.6833C57.9745 12.6835 57.9745 12.6838 57.9745 12.684C57.9745 12.6843 57.9745 12.6845 57.9745 12.6848C57.9745 12.685 57.9745 12.6853 57.9745 12.6855C57.9745 12.6858 57.9745 12.686 57.9745 12.6863C57.9745 12.6865 57.9745 12.6868 57.9745 12.687C57.9745 12.6873 57.9745 12.6876 57.9745 12.6878C57.9745 12.6881 57.9745 12.6883 57.9745 12.6886C57.9745 12.6888 57.9745 12.6891 57.9745 12.6893C57.9745 12.6896 57.9745 12.6898 57.9745 12.6901C57.9745 12.6903 57.9745 12.6906 57.9745 12.6908C57.9745 12.6911 57.9745 12.6913 57.9745 12.6916C57.9745 12.6918 57.9745 12.6921 57.9745 12.6923C57.9745 12.6926 57.9745 12.6928 57.9745 12.6931C57.9745 12.6933 57.9745 12.6936 57.9745 12.6939C57.9745 12.6941 57.9745 12.6944 57.9745 12.6946C57.9745 12.6949 57.9745 12.6951 57.9745 12.6954C57.9745 12.6956 57.9745 12.6959 57.9745 12.6961C57.9745 12.6964 57.9745 12.6966 57.9745 12.6969C57.9745 12.6971 57.9745 12.6974 57.9745 12.6976C57.9745 12.6979 57.9745 12.6981 57.9745 12.6984C57.9745 12.6987 57.9745 12.6989 57.9745 12.6992C57.9745 12.6994 57.9745 12.6997 57.9745 12.6999C57.9745 12.7002 57.9745 12.7004 57.9745 12.7007C57.9745 12.7009 57.9745 12.7012 57.9745 12.7014C57.9745 12.7017 57.9745 12.7019 57.9745 12.7022C57.9745 12.7024 57.9745 12.7027 57.9745 12.703C57.9745 12.7032 57.9745 12.7035 57.9745 12.7037C57.9745 12.704 57.9745 12.7042 57.9745 12.7045C57.9745 12.7047 57.9745 12.705 57.9745 12.7052C57.9745 12.7055 57.9745 12.7057 57.9745 12.706C57.9745 12.7063 57.9745 12.7065 57.9745 12.7068C57.9745 12.707 57.9745 12.7073 57.9745 12.7075C57.9745 12.7078 57.9745 12.708 57.9745 12.7083C57.9745 12.7085 57.9745 12.7088 57.9745 12.709C57.9745 12.7093 57.9745 12.7096 57.9745 12.7098C57.9745 12.7101 57.9745 12.7103 57.9745 12.7106C57.9745 12.7108 57.9745 12.7111 57.9745 12.7113C57.9745 12.7116 57.9745 12.7118 57.9745 12.7121C57.9745 12.7123 57.9745 12.7126 57.9745 12.7129C57.9745 12.7131 57.9745 12.7134 57.9745 12.7136C57.9745 12.7139 57.9745 12.7141 57.9745 12.7144C57.9745 12.7146 57.9745 12.7149 57.9745 12.7151C57.9745 12.7154 57.9745 12.7157 57.9745 12.7159C57.9745 12.7162 57.9745 12.7164 57.9745 12.7167C57.9745 12.7169 57.9745 12.7172 57.9745 12.7174C57.9745 12.7177 57.9745 12.7179 57.9745 12.7182C57.9745 12.7185 57.9745 12.7187 57.9745 12.719C57.9745 12.7192 57.9745 12.7195 57.9745 12.7197C57.9745 12.72 57.9745 12.7202 57.9745 12.7205C57.9745 12.7208 57.9745 12.721 57.9745 12.7213C57.9745 12.7215 57.9745 12.7218 57.9745 12.722C57.9745 12.7223 57.9745 12.7225 57.9745 12.7228C57.9745 12.7231 57.9745 12.7233 57.9745 12.7236C57.9745 12.7238 57.9745 12.7241 57.9745 12.7243C57.9745 12.7246 57.9745 12.7248 57.9745 12.7251C57.9745 12.7254 57.9745 12.7256 57.9745 12.7259C57.9745 12.7261 57.9745 12.7264 57.9745 12.7266C57.9745 12.7269 57.9745 12.7271 57.9745 12.7274C57.9745 12.7277 57.9745 12.7279 57.9745 12.7282C57.9745 12.7284 57.9745 12.7287 57.9745 12.7289C57.9745 12.7292 57.9745 12.7294 57.9745 12.7297C57.9745 12.73 57.9745 12.7302 57.9745 12.7305C57.9745 12.7307 57.9745 12.731 57.9745 12.7312C57.9745 12.7315 57.9745 12.7318 57.9745 12.732C57.9745 12.7323 57.9745 12.7325 57.9745 12.7328C57.9745 12.733 57.9745 12.7333 57.9745 12.7336C57.9745 12.7338 57.9745 12.7341 57.9745 12.7343C57.9745 12.7346 57.9745 12.7348 57.9745 12.7351C57.9745 12.7353 57.9745 12.7356 57.9745 12.7359C57.9745 12.7361 57.9745 12.7364 57.9745 12.7366C57.9745 12.7369 57.9745 12.7371 57.9745 12.7374C57.9745 12.7377 57.9745 12.7379 57.9745 12.7382C57.9745 12.7384 57.9745 12.7387 57.9745 12.7389C57.9745 12.7392 57.9745 12.7395 57.9745 12.7397C57.9745 12.74 57.9745 12.7402 57.9745 12.7405C57.9745 12.7407 57.9745 12.741 57.9745 12.7413C57.9745 12.7415 57.9745 12.7418 57.9745 12.742C57.9745 12.7423 57.9745 12.7425 57.9745 12.7428C57.9745 12.7431 57.9745 12.7433 57.9745 12.7436C57.9745 12.7438 57.9745 12.7441 57.9745 12.7444C57.9745 12.7446 57.9745 12.7449 57.9745 12.7451C57.9745 12.7454 57.9745 12.7456 57.9745 12.7459C57.9745 12.7462 57.9745 12.7464 57.9745 12.7467C57.9745 12.7469 57.9745 12.7472 57.9745 12.7474C57.9745 12.7477 57.9745 12.748 57.9745 12.7482C57.9745 12.7485 57.9745 12.7487 57.9745 12.749C57.9745 12.7493 57.9745 12.7495 57.9745 12.7498C57.9745 12.75 57.9745 12.7503 57.9745 12.7505C57.9745 12.7508 57.9745 12.7511 57.9745 12.7513C57.9745 12.7516 57.9745 12.7518 57.9745 12.7521C57.9745 12.7524 57.9745 12.7526 57.9745 12.7529C57.9745 12.7531 57.9745 12.7534 57.9745 12.7536C57.9745 12.7539 57.9745 12.7542 57.9745 12.7544C57.9745 12.7547 57.9745 12.7549 57.9745 12.7552C57.9745 12.7555 57.9745 12.7557 57.9745 12.756C57.9745 12.7562 57.9745 12.7565 57.9745 12.7568C57.9745 12.757 57.9745 12.7573 57.9745 12.7575C57.9745 12.7578 57.9745 12.758 57.9745 12.7583C57.9745 12.7586 57.9745 12.7588 57.9745 12.7591C57.9745 12.7593 57.9745 12.7596 57.9745 12.7599C57.9745 12.7601 57.9745 12.7604 57.9745 12.7606C57.9745 12.7609 57.9745 12.7612 57.9745 12.7614C57.9745 12.7617 57.9745 12.7619 57.9745 12.7622C57.9745 12.7625 57.9745 12.7627 57.9745 12.763C57.9745 12.7632 57.9745 12.7635 57.9745 12.7638C57.9745 12.764 57.9745 12.7643 57.9745 12.7645C57.9745 12.7648 57.9745 12.7651 57.9745 12.7653C57.9745 12.7656 57.9745 12.7658 57.9745 12.7661C57.9745 12.7664 57.9745 12.7666 57.9745 12.7669C57.9745 12.7671 57.9745 12.7674 57.9745 12.7677C57.9745 12.7679 57.9745 12.7682 57.9745 12.7684C57.9745 12.7687 57.9745 12.769 57.9745 12.7692C57.9745 12.7695 57.9745 12.7697 57.9745 12.77C57.9745 12.7703 57.9745 12.7705 57.9745 12.7708C57.9745 12.771 57.9745 12.7713 57.9745 12.7716C57.9745 12.7718 57.9745 12.7721 57.9745 12.7723C57.9745 12.7726 57.9745 12.7729 57.9745 12.7731C57.9745 12.7734 57.9745 12.7736 57.9745 12.7739C57.9745 12.7742 57.9745 12.7744 57.9745 12.7747C57.9745 12.775 57.9745 12.7752 57.9745 12.7755C57.9745 12.7757 57.9745 12.776 57.9745 12.7763C57.9745 12.7765 57.9745 12.7768 57.9745 12.777C57.9745 12.7773 57.9745 12.7776 57.9745 12.7778C57.9745 12.7781 57.9745 12.7783 57.9745 12.7786C57.9745 12.7789 57.9745 12.7791 57.9745 12.7794C57.9745 12.7797 57.9745 12.7799 57.9745 12.7802C57.9745 12.7804 57.9745 12.7807 57.9745 12.781C57.9745 12.7812 57.9745 12.7815 57.9745 12.7817C57.9745 12.782 57.9745 12.7823 57.9745 12.7825C57.9745 12.7828 57.9745 12.7831 57.9745 12.7833C57.9745 12.7836 57.9745 12.7838 57.9745 12.7841C57.9745 12.7844 57.9745 12.7846 57.9745 12.7849C57.9745 12.7851 57.9745 12.7854 57.9745 12.7857C57.9745 12.7859 57.9745 12.7862 57.9745 12.7865C57.9745 12.7867 57.9745 12.787 57.9745 12.7872C57.9745 12.7875 57.9745 12.7878 57.9745 12.788C57.9745 12.7883 57.9745 12.7886 57.9745 12.7888C57.9745 12.7891 57.9745 12.7893 57.9745 12.7896C57.9745 12.7899 57.9745 12.7901 57.9745 12.7904C57.9745 12.7907 57.9745 12.7909 57.9745 12.7912C57.9745 12.7914 57.9745 12.7917 57.9745 12.792C57.9745 12.7922 57.9745 12.7925 57.9745 12.7928C57.9745 12.793 57.9745 12.7933 57.9745 12.7935C57.9745 12.7938 57.9745 12.7941 57.9745 12.7943C57.9745 12.7946 57.9745 12.7949 57.9745 12.7951C57.9745 12.7954 57.9745 12.7957 57.9745 12.7959C57.9745 12.7962 57.9745 12.7964 57.9745 12.7967C57.9745 12.797 57.9745 12.7972 57.9745 12.7975C57.9745 12.7978 57.9745 12.798 57.9745 12.7983C57.9745 12.7985 57.9745 12.7988 57.9745 12.7991C57.9745 12.7993 57.9745 12.7996 57.9745 12.7999C57.9745 12.8001 57.9745 12.8004 57.9745 12.8007C57.9745 12.8009 57.9745 12.8012 57.9745 12.8014C57.9745 12.8017 57.9745 12.802 57.9745 12.8022C57.9745 12.8025 57.9745 12.8028 57.9745 12.803C57.9745 12.8033 57.9745 12.8036 57.9745 12.8038C57.9745 12.8041 57.9745 12.8043 57.9745 12.8046C57.9745 12.8049 57.9745 12.8051 57.9745 12.8054C57.9745 12.8057 57.9745 12.8059 57.9745 12.8062C57.9745 12.8065 57.9745 12.8067 57.9745 12.807C57.9745 12.8073 57.9745 12.8075 57.9745 12.8078C57.9745 12.808 57.9745 12.8083 57.9745 12.8086C57.9745 12.8088 57.9745 12.8091 57.9745 12.8094C57.9745 12.8096 57.9745 12.8099 57.9745 12.8102C57.9745 12.8104 57.9745 12.8107 57.9745 12.811C57.9745 12.8112 57.9745 12.8115 57.9745 12.8117C57.9745 12.812 57.9745 12.8123 57.9745 12.8125C57.9745 12.8128 57.9745 12.8131 57.9745 12.8133C57.9745 12.8136 57.9745 12.8139 57.9745 12.8141C57.9745 12.8144 57.9745 12.8147 57.9745 12.8149C57.9745 12.8152 57.9745 12.8155 57.9745 12.8157C57.9745 12.816 57.9745 12.8163 57.9745 12.8165C57.9745 12.8168 57.9745 12.817 57.9745 12.8173C57.9745 12.8176 57.9745 12.8178 57.9745 12.8181C57.9745 12.8184 57.9745 12.8186 57.9745 12.8189C57.9745 12.8192 57.9745 12.8194 57.9745 12.8197C57.9745 12.82 57.9745 12.8202 57.9745 12.8205C57.9745 12.8208 57.9745 12.821 57.9745 12.8213C57.9745 12.8216 57.9745 12.8218 57.9745 12.8221C57.9745 12.8224 57.9745 12.8226 57.9745 12.8229C57.9745 12.8232 57.9745 12.8234 57.9745 12.8237C57.9745 12.824 57.9745 12.8242 57.9745 12.8245C57.9745 12.8248 57.9745 12.825 57.9745 12.8253C57.9745 12.8256 57.9745 12.8258 57.9745 12.8261C57.9745 12.8263 57.9745 12.8266 57.9745 12.8269C57.9745 12.8271 57.9745 12.8274 57.9745 12.8277C57.9745 12.8279 57.9745 12.8282 57.9745 12.8285C57.9745 12.8287 57.9745 12.829 57.9745 12.8293C57.9745 12.8295 57.9745 12.8298 57.9745 12.8301C57.9745 12.8303 57.9745 12.8306 57.9745 12.8309C57.9745 12.8311 57.9745 12.8314 57.9745 12.8317C57.9745 12.8319 57.9745 12.8322 57.9745 12.8325C57.9745 12.8327 57.9745 12.833 57.9745 12.8333C57.9745 12.8335 57.9745 12.8338 57.9745 12.8341C57.9745 12.8343 57.9745 12.8346 57.9745 12.8349C57.9745 12.8351 57.9745 12.8354 57.9745 12.8357C57.9745 12.836 57.9745 12.8362 57.9745 12.8365C57.9745 12.8368 57.9745 12.837 57.9745 12.8373C57.9745 12.8376 57.9745 12.8378 57.9745 12.8381C57.9745 12.8384 57.9745 12.8386 57.9745 12.8389C57.9745 12.8392 57.9745 12.8394 57.9745 12.8397C57.9745 12.84 57.9745 12.8402 57.9745 12.8405C57.9745 12.8408 57.9745 12.841 57.9745 12.8413C57.9745 12.8416 57.9745 12.8418 57.9745 12.8421C57.9745 12.8424 57.9745 12.8426 57.9745 12.8429C57.9745 12.8432 57.9745 12.8434 57.9745 12.8437C57.9745 12.844 57.9745 12.8442 57.9745 12.8445C57.9745 12.8448 57.9745 12.8451 57.9745 12.8453C57.9745 12.8456 57.9745 12.8459 57.9745 12.8461C57.9745 12.8464 57.9745 12.8467 57.9745 12.8469C57.9745 12.8472 57.9745 12.8475 57.9745 12.8477C57.9745 12.848 57.9745 12.8483 57.9745 12.8485C57.9745 12.8488 57.9745 12.8491 57.9745 12.8493C57.9745 12.8496 57.9745 12.8499 57.9745 12.8502C57.9745 12.8504 57.9745 12.8507 57.9745 12.851C57.9745 12.8512 57.9745 12.8515 57.9745 12.8518C57.9745 12.852 57.9745 12.8523 57.9745 12.8526C57.9745 12.8528 57.9745 12.8531 57.9745 12.8534C57.9745 12.8536 57.9745 12.8539 57.9745 12.8542C57.9745 12.8545 57.9745 12.8547 57.9745 12.855C57.9745 12.8553 57.9745 12.8555 57.9745 12.8558C57.9745 12.8561 57.9745 12.8563 57.9745 12.8566C57.9745 12.8569 57.9745 12.8571 57.9745 12.8574C57.9745 12.8577 57.9745 12.858 57.9745 12.8582C57.9745 12.8585 57.9745 12.8588 57.9745 12.859C57.9745 12.8593 57.9745 12.8596 57.9745 12.8598C57.9745 12.8601 57.9745 12.8604 57.9745 12.8606C57.9745 12.8609 57.9745 12.8612 57.9745 12.8615C57.9745 12.8617 57.9745 12.862 57.9745 12.8623C57.9745 12.8625 57.9745 12.8628 57.9745 12.8631C57.9745 12.8633 57.9745 12.8636 57.9745 12.8639C57.9745 12.8642 57.9745 12.8644 57.9745 12.8647C57.9745 12.865 57.9745 12.8652 57.9745 12.8655C57.9745 12.8658 57.9745 12.866 57.9745 12.8663C57.9745 12.8666 57.9745 12.8669 57.9745 12.8671C57.9745 12.8674 57.9745 12.8677 57.9745 12.8679C57.9745 12.8682 57.9745 12.8685 57.9745 12.8688C57.9745 12.869 57.9745 12.8693 57.9745 12.8696C57.9745 12.8698 57.9745 12.8701 57.9745 12.8704C57.9745 12.8706 57.9745 12.8709 57.9745 12.8712C57.9745 12.8715 57.9745 12.8717 57.9745 12.872C57.9745 12.8723 57.9745 12.8725 57.9745 12.8728C57.9745 12.8731 57.9745 12.8734 57.9745 12.8736C57.9745 12.8739 57.9745 12.8742 57.9745 12.8744C57.9745 12.8747 57.9745 12.875 57.9745 12.8753C57.9745 12.8755 57.9745 12.8758 57.9745 12.8761C57.9745 12.8763 57.9745 12.8766 57.9745 12.8769C57.9745 12.8771 57.9745 12.8774 57.9745 12.8777C57.9745 12.878 57.9745 12.8782 57.9745 12.8785C57.9745 12.8788 57.9745 12.8791 57.9745 12.8793C57.9745 12.8796 57.9745 12.8799 57.9745 12.8801C57.9745 12.8804 57.9745 12.8807 57.9745 12.881C57.9745 12.8812 57.9745 12.8815 57.9745 12.8818C57.9745 12.882 57.9745 12.8823 57.9745 12.8826C57.9745 12.8829 57.9745 12.8831 57.9745 12.8834C57.9745 12.8837 57.9745 12.8839 57.9745 12.8842C57.9745 12.8845 57.9745 12.8848 57.9745 12.885C57.9745 12.8853 57.9745 12.8856 57.9745 12.8858C57.9745 12.8861 57.9745 12.8864 57.9745 12.8867C57.9745 12.8869 57.9745 12.8872 57.9745 12.8875C57.9745 12.8878 57.9745 12.888 57.9745 12.8883C57.9745 12.8886 57.9745 12.8888 57.9745 12.8891C57.9745 12.8894 57.9745 12.8897 57.9745 12.8899C57.9745 12.8902 57.9745 12.8905 57.9745 12.8908C57.9745 12.891 57.9745 12.8913 57.9745 12.8916C57.9745 12.8918 57.9745 12.8921 57.9745 12.8924C57.9745 12.8927 57.9745 12.8929 57.9745 12.8932C57.9745 12.8935 57.9745 12.8938 57.9745 12.894C57.9745 12.8943 57.9745 12.8946 57.9745 12.8948C57.9745 12.8951 57.9745 12.8954 57.9745 12.8957C57.9745 12.8959 57.9745 12.8962 57.9745 12.8965C57.9745 12.8968 57.9745 12.897 57.9745 12.8973C57.9745 12.8976 57.9745 12.8979 57.9745 12.8981C57.9745 12.8984 57.9745 12.8987 57.9745 12.8989C57.9745 12.8992 57.9745 12.8995 57.9745 12.8998C57.9745 12.9 57.9745 12.9003 57.9745 12.9006C57.9745 12.9009 57.9745 12.9011 57.9745 12.9014C57.9745 12.9017 57.9745 12.902 57.9745 12.9022C57.9745 12.9025 57.9745 12.9028 57.9745 12.9031C57.9745 12.9033 57.9745 12.9036 57.9745 12.9039C57.9745 12.9041 57.9745 12.9044 57.9745 12.9047C57.9745 12.905 57.9745 12.9052 57.9745 12.9055C57.9745 12.9058 57.9745 12.9061 57.9745 12.9063C57.9745 12.9066 57.9745 12.9069 57.9745 12.9072C57.9745 12.9074 57.9745 12.9077 57.9745 12.908C57.9745 12.9083 57.9745 12.9085 57.9745 12.9088C57.9745 12.9091 57.9745 12.9094 57.9745 12.9096C57.9745 12.9099 57.9745 12.9102 57.9745 12.9105C57.9745 12.9107 57.9745 12.911 57.9745 12.9113C57.9745 12.9116 57.9745 12.9118 57.9745 12.9121C57.9745 12.9124 57.9745 12.9127 57.9745 12.9129C57.9745 12.9132 57.9745 12.9135 57.9745 12.9138C57.9745 12.914 57.9745 12.9143 57.9745 12.9146C57.9745 12.9149 57.9745 12.9151 57.9745 12.9154C57.9745 12.9157 57.9745 12.916 57.9745 12.9162C57.9745 12.9165 57.9745 12.9168 57.9745 12.9171C57.9745 12.9173 57.9745 12.9176 57.9745 12.9179C57.9745 12.9182 57.9745 12.9184 57.9745 12.9187C57.9745 12.919 57.9745 12.9193 57.9745 12.9195C57.9745 12.9198 57.9745 12.9201 57.9745 12.9204C57.9745 12.9206 57.9745 12.9209 57.9745 12.9212C57.9745 12.9215 57.9745 12.9217 57.9745 12.922C57.9745 12.9223 57.9745 12.9226 57.9745 12.9228C57.9745 12.9231 57.9745 12.9234 57.9745 12.9237C57.9745 12.9239 57.9745 12.9242 57.9745 12.9245C57.9745 12.9248 57.9745 12.9251 57.9745 12.9253C57.9745 12.9256 57.9745 12.9259 57.9745 12.9262C57.9745 12.9264 57.9745 12.9267 57.9745 12.927C57.9745 12.9273 57.9745 12.9275 57.9745 12.9278C57.9745 12.9281 57.9745 12.9284 57.9745 12.9286C57.9745 12.9289 57.9745 12.9292 57.9745 12.9295C57.9745 12.9297 57.9745 12.93 57.9745 12.9303C57.9745 12.9306 57.9745 12.9309 57.9745 12.9311C57.9745 12.9314 57.9745 12.9317 57.9745 12.932C57.9745 12.9322 57.9745 12.9325 57.9745 12.9328C57.9745 12.9331 57.9745 12.9333 57.9745 12.9336C57.9745 12.9339 57.9745 12.9342 57.9745 12.9345C57.9745 12.9347 57.9745 12.935 57.9745 12.9353C57.9745 12.9356 57.9745 12.9358 57.9745 12.9361C57.9745 12.9364 57.9745 12.9367 57.9745 12.9369C57.9745 12.9372 57.9745 12.9375 57.9745 12.9378C57.9745 12.9381 57.9745 12.9383 57.9745 12.9386C57.9745 12.9389 57.9745 12.9392 57.9745 12.9394C57.9745 12.9397 57.9745 12.94 57.9745 12.9403C57.9745 12.9406 57.9745 12.9408 57.9745 12.9411C57.9745 12.9414 57.9745 12.9417 57.9745 12.9419C57.9745 12.9422 57.9745 12.9425 57.9745 12.9428C57.9745 12.9431 57.9745 12.9433 57.9745 12.9436C57.9745 12.9439 57.9745 12.9442 57.9745 12.9444C57.9745 12.9447 57.9745 12.945 57.9745 12.9453C57.9745 12.9456 57.9745 12.9458 57.9745 12.9461C57.9745 12.9464 57.9745 12.9467 57.9745 12.9469C57.9745 12.9472 57.9745 12.9475 57.9745 12.9478C57.9745 12.9481 57.9745 12.9483 57.9745 12.9486C57.9745 12.9489 57.9745 12.9492 57.9745 12.9495C57.9745 12.9497 57.9745 12.95 57.9745 12.9503C57.9745 12.9506 57.9745 12.9508 57.9745 12.9511C57.9745 12.9514 57.9745 12.9517 57.9745 12.952C57.9745 12.9522 57.9745 12.9525 57.9745 12.9528C57.9745 12.9531 57.9745 12.9534 57.9745 12.9536C57.9745 12.9539 57.9745 12.9542 57.9745 12.9545C57.9745 12.9547 57.9745 12.955 57.9745 12.9553C57.9745 12.9556 57.9745 12.9559 57.9745 12.9561C57.9745 12.9564 57.9745 12.9567 57.9745 12.957C57.9745 12.9573 57.9745 12.9575 57.9745 12.9578C57.9745 12.9581 57.9745 12.9584 57.9745 12.9587C57.9745 12.9589 57.9745 12.9592 57.9745 12.9595C57.9745 12.9598 57.9745 12.9601 57.9745 12.9603C57.9745 12.9606 57.9745 12.9609 57.9745 12.9612C57.9745 12.9615 57.9745 12.9617 57.9745 12.962C57.9745 12.9623 57.9745 12.9626 57.9745 12.9629C57.9745 12.9631 57.9745 12.9634 57.9745 12.9637C57.9745 12.964 57.9745 12.9643 57.9745 12.9645C57.9745 12.9648 57.9745 12.9651 57.9745 12.9654C57.9745 12.9657 57.9745 12.9659 57.9745 12.9662C57.9745 12.9665 57.9745 12.9668 57.9745 12.9671C57.9745 12.9673 57.9745 12.9676 57.9745 12.9679C57.9745 12.9682 57.9745 12.9685 57.9745 12.9687C57.9745 12.969 57.9745 12.9693 57.9745 12.9696C57.9745 12.9699 57.9745 12.9701 57.9745 12.9704C57.9745 12.9707 57.9745 12.971 57.9745 12.9713C57.9745 12.9715 57.9745 12.9718 57.9745 12.9721C57.9745 12.9724 57.9745 12.9727 57.9745 12.9729C57.9745 12.9732 57.9745 12.9735 57.9745 12.9738C57.9745 12.9741 57.9745 12.9743 57.9745 12.9746C57.9745 12.9749 57.9745 12.9752 57.9745 12.9755C57.9745 12.9757 57.9745 12.976 57.9745 12.9763C57.9745 12.9766 57.9745 12.9769 57.9745 12.9772C57.9745 12.9774 57.9745 12.9777 57.9745 12.978C57.9745 12.9783 57.9745 12.9786 57.9745 12.9788C57.9745 12.9791 57.9745 12.9794 57.9745 12.9797C57.9745 12.98 57.9745 12.9802 57.9745 12.9805C57.9745 12.9808 57.9745 12.9811 57.9745 12.9814C57.9745 12.9817 57.9745 12.9819 57.9745 12.9822C57.9745 12.9825 57.9745 12.9828 57.9745 12.9831C57.9745 12.9833 57.9745 12.9836 57.9745 12.9839C57.9745 12.9842 57.9745 12.9845 57.9745 12.9848C57.9745 12.985 57.9745 12.9853 57.9745 12.9856C57.9745 12.9859 57.9745 12.9862 57.9745 12.9864C57.9745 12.9867 57.9745 12.987 57.9745 12.9873C57.9745 12.9876 57.9745 12.9879 57.9745 12.9881C57.9745 12.9884 57.9745 12.9887 57.9745 12.989C57.9745 12.9893 57.9745 12.9896 57.9745 12.9898C57.9745 12.9901 57.9745 12.9904 57.9745 12.9907C57.9745 12.991 57.9745 12.9912 57.9745 12.9915C57.9745 12.9918 57.9745 12.9921 57.9745 12.9924C57.9745 12.9927 57.9745 12.9929 57.9745 12.9932C57.9745 12.9935 57.9745 12.9938 57.9745 12.9941C57.9745 12.9944 57.9745 12.9946 57.9745 12.9949C57.9745 12.9952 57.9745 12.9955 57.9745 12.9958C57.9745 12.9961 57.9745 12.9963 57.9745 12.9966C57.9745 12.9969 57.9745 12.9972 57.9745 12.9975C57.9745 12.9978 57.9745 12.998 57.9745 12.9983C57.9745 12.9986 57.9745 12.9989 57.9745 12.9992C57.9745 12.9995 57.9745 12.9997 57.9745 13C57.9745 13.0003 57.9745 13.0006 57.9745 13.0009C57.9745 13.0012 57.9745 13.0014 57.9745 13.0017C57.9745 13.002 57.9745 13.0023 57.9745 13.0026C57.9745 13.0029 57.9745 13.0031 57.9745 13.0034C57.9745 13.0037 57.9745 13.004 57.9745 13.0043C57.9745 13.0046 57.9745 13.0048 57.9745 13.0051C57.9745 13.0054 57.9745 13.0057 57.9745 13.006C57.9745 13.0063 57.9745 13.0065 57.9745 13.0068C57.9745 13.0071 57.9745 13.0074 57.9745 13.0077C57.9745 13.008 57.9745 13.0082 57.9745 13.0085C57.9745 13.0088 57.9745 13.0091 57.9745 13.0094C57.9745 13.0097 57.9745 13.01 57.9745 13.0102C57.9745 13.0105 57.9745 13.0108 57.9745 13.0111C57.9745 13.0114 57.9745 13.0117 57.9745 13.0119C57.9745 13.0122 57.9745 13.0125 57.9745 13.0128C57.9745 13.0131 57.9745 13.0134 57.9745 13.0137C57.9745 13.0139 57.9745 13.0142 57.9745 13.0145C57.9745 13.0148 57.9745 13.0151 57.9745 13.0154C57.9745 13.0156 57.9745 13.0159 57.9745 13.0162C57.9745 13.0165 57.9745 13.0168 57.9745 13.0171C57.9745 13.0174 57.9745 13.0176 57.9745 13.0179C57.9745 13.0182 57.9745 13.0185 57.9745 13.0188C57.9745 13.0191 57.9745 13.0194 57.9745 13.0196C57.9745 13.0199 57.9745 13.0202 57.9745 13.0205C57.9745 13.0208 57.9745 13.0211 57.9745 13.0213C57.9745 13.0216 57.9745 13.0219 57.9745 13.0222C57.9745 13.0225 57.9745 13.0228 57.9745 13.0231C57.9745 13.0233 57.9745 13.0236 57.9745 13.0239C57.9745 13.0242 57.9745 13.0245 57.9745 13.0248C57.9745 13.0251 57.9745 13.0253 57.9745 13.0256C57.9745 13.0259 57.9745 13.0262 57.9745 13.0265C57.9745 13.0268 57.9745 13.0271 57.9745 13.0273C57.9745 13.0276 57.9745 13.0279 57.9745 13.0282C57.9745 13.0285 57.9745 13.0288 57.9745 13.0291C57.9745 13.0294 57.9745 13.0296 57.9745 13.0299C57.9745 13.0302 57.9745 13.0305 57.9745 13.0308C57.9745 13.0311 57.9745 13.0314 57.9745 13.0316C57.9745 13.0319 57.9745 13.0322 57.9745 13.0325C57.9745 13.0328 57.9745 13.0331 57.9745 13.0334C57.9745 13.0336 57.9745 13.0339 57.9745 13.0342C57.9745 13.0345 57.9745 13.0348 57.9745 13.0351C57.9745 13.0354 57.9745 13.0357 57.9745 13.0359C57.9745 13.0362 57.9745 13.0365 57.9745 13.0368C57.9745 13.0371 57.9745 13.0374 57.9745 13.0377C57.9745 13.0379 57.9745 13.0382 57.9745 13.0385C57.9745 13.0388 57.9745 13.0391 57.9745 13.0394C57.9745 13.0397 57.9745 13.04 57.9745 13.0402C57.9745 13.0405 57.9745 13.0408 57.9745 13.0411C57.9745 13.0414 57.9745 13.0417 57.9745 13.042C57.9745 13.0423 57.9745 13.0425 57.9745 13.0428C57.9745 13.0431 57.9745 13.0434 57.9745 13.0437C57.9745 13.044 57.9745 13.0443 57.9745 13.0446C57.9745 13.0448 57.9745 13.0451 57.9745 13.0454C57.9745 13.0457 57.9745 13.046 57.9745 13.0463C57.9745 13.0466 57.9745 13.0469 57.9745 13.0471C57.9745 13.0474 57.9745 13.0477 57.9745 13.048C57.9745 13.0483 57.9745 13.0486 57.9745 13.0489C57.9745 13.0492 57.9745 13.0494 57.9745 13.0497C57.9745 13.05 57.9745 13.0503 57.9745 13.0506C57.9745 13.0509 57.9745 13.0512 57.9745 13.0515C57.9745 13.0518 57.9745 13.052 57.9745 13.0523C57.9745 13.0526 57.9745 13.0529 57.9745 13.0532C57.9745 13.0535 57.9745 13.0538 57.9745 13.0541C57.9745 13.0543 57.9745 13.0546 57.9745 13.0549C57.9745 13.0552 57.9745 13.0555 57.9745 13.0558C57.9745 13.0561 57.9745 13.0564 57.9745 13.0567C57.9745 13.0569 57.9745 13.0572 57.9745 13.0575C57.9745 13.0578 57.9745 13.0581 57.9745 13.0584C57.9745 13.0587 57.9745 13.059 57.9745 13.0593C57.9745 13.0595 57.9745 13.0598 57.9745 13.0601C57.9745 13.0604 57.9745 13.0607 57.9745 13.061C57.9745 13.0613 57.9745 13.0616 57.9745 13.0619C57.9745 13.0621 57.9745 13.0624 57.9745 13.0627C57.9745 13.063 57.9745 13.0633 57.9745 13.0636C57.9745 13.0639 57.9745 13.0642 57.9745 13.0645C57.9745 13.0648 57.9745 13.065 57.9745 13.0653C57.9745 13.0656 57.9745 13.0659 57.9745 13.0662C57.9745 13.0665 57.9745 13.0668 57.9745 13.0671C57.9745 13.0674 57.9745 13.0676 57.9745 13.0679C57.9745 13.0682 57.9745 13.0685 57.9745 13.0688C57.9745 13.0691 57.9745 13.0694 57.9745 13.0697C57.9745 13.07 57.9745 13.0703 57.9745 13.0705C57.9745 13.0708 57.9745 13.0711 57.9745 13.0714C57.9745 13.0717 57.9745 13.072 57.9745 13.0723C57.9745 13.0726 57.9745 13.0729 57.9745 13.0732C57.9745 13.0734 57.9745 13.0737 57.9745 13.074C57.9745 13.0743 57.9745 13.0746 57.9745 13.0749C57.9745 13.0752 57.9745 13.0755 57.9745 13.0758C57.9745 13.0761 57.9745 13.0764 57.9745 13.0766C57.9745 13.0769 57.9745 13.0772 57.9745 13.0775C57.9745 13.0778 57.9745 13.0781 57.9745 13.0784C57.9745 13.0787 57.9745 13.079 57.9745 13.0793C57.9745 13.0796 57.9745 13.0798 57.9745 13.0801C57.9745 13.0804 57.9745 13.0807 57.9745 13.081C57.9745 13.0813 57.9745 13.0816 57.9745 13.0819C57.9745 13.0822 57.9745 13.0825 57.9745 13.0828C57.9745 13.083 57.9745 13.0833 57.9745 13.0836C57.9745 13.0839 57.9745 13.0842 57.9745 13.0845C57.9745 13.0848 57.9745 13.0851 57.9745 13.0854C57.9745 13.0857 57.9745 13.086 57.9745 13.0863C57.9745 13.0865 57.9745 13.0868 57.9745 13.0871C57.9745 13.0874 57.9745 13.0877 57.9745 13.088H59.9745C59.9745 13.0877 59.9745 13.0874 59.9745 13.0871C59.9745 13.0868 59.9745 13.0865 59.9745 13.0863C59.9745 13.086 59.9745 13.0857 59.9745 13.0854C59.9745 13.0851 59.9745 13.0848 59.9745 13.0845C59.9745 13.0842 59.9745 13.0839 59.9745 13.0836C59.9745 13.0833 59.9745 13.083 59.9745 13.0828C59.9745 13.0825 59.9745 13.0822 59.9745 13.0819C59.9745 13.0816 59.9745 13.0813 59.9745 13.081C59.9745 13.0807 59.9745 13.0804 59.9745 13.0801C59.9745 13.0798 59.9745 13.0796 59.9745 13.0793C59.9745 13.079 59.9745 13.0787 59.9745 13.0784C59.9745 13.0781 59.9745 13.0778 59.9745 13.0775C59.9745 13.0772 59.9745 13.0769 59.9745 13.0766C59.9745 13.0764 59.9745 13.0761 59.9745 13.0758C59.9745 13.0755 59.9745 13.0752 59.9745 13.0749C59.9745 13.0746 59.9745 13.0743 59.9745 13.074C59.9745 13.0737 59.9745 13.0734 59.9745 13.0732C59.9745 13.0729 59.9745 13.0726 59.9745 13.0723C59.9745 13.072 59.9745 13.0717 59.9745 13.0714C59.9745 13.0711 59.9745 13.0708 59.9745 13.0705C59.9745 13.0703 59.9745 13.07 59.9745 13.0697C59.9745 13.0694 59.9745 13.0691 59.9745 13.0688C59.9745 13.0685 59.9745 13.0682 59.9745 13.0679C59.9745 13.0676 59.9745 13.0674 59.9745 13.0671C59.9745 13.0668 59.9745 13.0665 59.9745 13.0662C59.9745 13.0659 59.9745 13.0656 59.9745 13.0653C59.9745 13.065 59.9745 13.0648 59.9745 13.0645C59.9745 13.0642 59.9745 13.0639 59.9745 13.0636C59.9745 13.0633 59.9745 13.063 59.9745 13.0627C59.9745 13.0624 59.9745 13.0621 59.9745 13.0619C59.9745 13.0616 59.9745 13.0613 59.9745 13.061C59.9745 13.0607 59.9745 13.0604 59.9745 13.0601C59.9745 13.0598 59.9745 13.0595 59.9745 13.0593C59.9745 13.059 59.9745 13.0587 59.9745 13.0584C59.9745 13.0581 59.9745 13.0578 59.9745 13.0575C59.9745 13.0572 59.9745 13.0569 59.9745 13.0567C59.9745 13.0564 59.9745 13.0561 59.9745 13.0558C59.9745 13.0555 59.9745 13.0552 59.9745 13.0549C59.9745 13.0546 59.9745 13.0543 59.9745 13.0541C59.9745 13.0538 59.9745 13.0535 59.9745 13.0532C59.9745 13.0529 59.9745 13.0526 59.9745 13.0523C59.9745 13.052 59.9745 13.0518 59.9745 13.0515C59.9745 13.0512 59.9745 13.0509 59.9745 13.0506C59.9745 13.0503 59.9745 13.05 59.9745 13.0497C59.9745 13.0494 59.9745 13.0492 59.9745 13.0489C59.9745 13.0486 59.9745 13.0483 59.9745 13.048C59.9745 13.0477 59.9745 13.0474 59.9745 13.0471C59.9745 13.0469 59.9745 13.0466 59.9745 13.0463C59.9745 13.046 59.9745 13.0457 59.9745 13.0454C59.9745 13.0451 59.9745 13.0448 59.9745 13.0446C59.9745 13.0443 59.9745 13.044 59.9745 13.0437C59.9745 13.0434 59.9745 13.0431 59.9745 13.0428C59.9745 13.0425 59.9745 13.0423 59.9745 13.042C59.9745 13.0417 59.9745 13.0414 59.9745 13.0411C59.9745 13.0408 59.9745 13.0405 59.9745 13.0402C59.9745 13.04 59.9745 13.0397 59.9745 13.0394C59.9745 13.0391 59.9745 13.0388 59.9745 13.0385C59.9745 13.0382 59.9745 13.0379 59.9745 13.0377C59.9745 13.0374 59.9745 13.0371 59.9745 13.0368C59.9745 13.0365 59.9745 13.0362 59.9745 13.0359C59.9745 13.0357 59.9745 13.0354 59.9745 13.0351C59.9745 13.0348 59.9745 13.0345 59.9745 13.0342C59.9745 13.0339 59.9745 13.0336 59.9745 13.0334C59.9745 13.0331 59.9745 13.0328 59.9745 13.0325C59.9745 13.0322 59.9745 13.0319 59.9745 13.0316C59.9745 13.0314 59.9745 13.0311 59.9745 13.0308C59.9745 13.0305 59.9745 13.0302 59.9745 13.0299C59.9745 13.0296 59.9745 13.0294 59.9745 13.0291C59.9745 13.0288 59.9745 13.0285 59.9745 13.0282C59.9745 13.0279 59.9745 13.0276 59.9745 13.0273C59.9745 13.0271 59.9745 13.0268 59.9745 13.0265C59.9745 13.0262 59.9745 13.0259 59.9745 13.0256C59.9745 13.0253 59.9745 13.0251 59.9745 13.0248C59.9745 13.0245 59.9745 13.0242 59.9745 13.0239C59.9745 13.0236 59.9745 13.0233 59.9745 13.0231C59.9745 13.0228 59.9745 13.0225 59.9745 13.0222C59.9745 13.0219 59.9745 13.0216 59.9745 13.0213C59.9745 13.0211 59.9745 13.0208 59.9745 13.0205C59.9745 13.0202 59.9745 13.0199 59.9745 13.0196C59.9745 13.0194 59.9745 13.0191 59.9745 13.0188C59.9745 13.0185 59.9745 13.0182 59.9745 13.0179C59.9745 13.0176 59.9745 13.0174 59.9745 13.0171C59.9745 13.0168 59.9745 13.0165 59.9745 13.0162C59.9745 13.0159 59.9745 13.0156 59.9745 13.0154C59.9745 13.0151 59.9745 13.0148 59.9745 13.0145C59.9745 13.0142 59.9745 13.0139 59.9745 13.0137C59.9745 13.0134 59.9745 13.0131 59.9745 13.0128C59.9745 13.0125 59.9745 13.0122 59.9745 13.0119C59.9745 13.0117 59.9745 13.0114 59.9745 13.0111C59.9745 13.0108 59.9745 13.0105 59.9745 13.0102C59.9745 13.01 59.9745 13.0097 59.9745 13.0094C59.9745 13.0091 59.9745 13.0088 59.9745 13.0085C59.9745 13.0082 59.9745 13.008 59.9745 13.0077C59.9745 13.0074 59.9745 13.0071 59.9745 13.0068C59.9745 13.0065 59.9745 13.0063 59.9745 13.006C59.9745 13.0057 59.9745 13.0054 59.9745 13.0051C59.9745 13.0048 59.9745 13.0046 59.9745 13.0043C59.9745 13.004 59.9745 13.0037 59.9745 13.0034C59.9745 13.0031 59.9745 13.0029 59.9745 13.0026C59.9745 13.0023 59.9745 13.002 59.9745 13.0017C59.9745 13.0014 59.9745 13.0012 59.9745 13.0009C59.9745 13.0006 59.9745 13.0003 59.9745 13C59.9745 12.9997 59.9745 12.9995 59.9745 12.9992C59.9745 12.9989 59.9745 12.9986 59.9745 12.9983C59.9745 12.998 59.9745 12.9978 59.9745 12.9975C59.9745 12.9972 59.9745 12.9969 59.9745 12.9966C59.9745 12.9963 59.9745 12.9961 59.9745 12.9958C59.9745 12.9955 59.9745 12.9952 59.9745 12.9949C59.9745 12.9946 59.9745 12.9944 59.9745 12.9941C59.9745 12.9938 59.9745 12.9935 59.9745 12.9932C59.9745 12.9929 59.9745 12.9927 59.9745 12.9924C59.9745 12.9921 59.9745 12.9918 59.9745 12.9915C59.9745 12.9912 59.9745 12.991 59.9745 12.9907C59.9745 12.9904 59.9745 12.9901 59.9745 12.9898C59.9745 12.9896 59.9745 12.9893 59.9745 12.989C59.9745 12.9887 59.9745 12.9884 59.9745 12.9881C59.9745 12.9879 59.9745 12.9876 59.9745 12.9873C59.9745 12.987 59.9745 12.9867 59.9745 12.9864C59.9745 12.9862 59.9745 12.9859 59.9745 12.9856C59.9745 12.9853 59.9745 12.985 59.9745 12.9848C59.9745 12.9845 59.9745 12.9842 59.9745 12.9839C59.9745 12.9836 59.9745 12.9833 59.9745 12.9831C59.9745 12.9828 59.9745 12.9825 59.9745 12.9822C59.9745 12.9819 59.9745 12.9817 59.9745 12.9814C59.9745 12.9811 59.9745 12.9808 59.9745 12.9805C59.9745 12.9802 59.9745 12.98 59.9745 12.9797C59.9745 12.9794 59.9745 12.9791 59.9745 12.9788C59.9745 12.9786 59.9745 12.9783 59.9745 12.978C59.9745 12.9777 59.9745 12.9774 59.9745 12.9772C59.9745 12.9769 59.9745 12.9766 59.9745 12.9763C59.9745 12.976 59.9745 12.9757 59.9745 12.9755C59.9745 12.9752 59.9745 12.9749 59.9745 12.9746C59.9745 12.9743 59.9745 12.9741 59.9745 12.9738C59.9745 12.9735 59.9745 12.9732 59.9745 12.9729C59.9745 12.9727 59.9745 12.9724 59.9745 12.9721C59.9745 12.9718 59.9745 12.9715 59.9745 12.9713C59.9745 12.971 59.9745 12.9707 59.9745 12.9704C59.9745 12.9701 59.9745 12.9699 59.9745 12.9696C59.9745 12.9693 59.9745 12.969 59.9745 12.9687C59.9745 12.9685 59.9745 12.9682 59.9745 12.9679C59.9745 12.9676 59.9745 12.9673 59.9745 12.9671C59.9745 12.9668 59.9745 12.9665 59.9745 12.9662C59.9745 12.9659 59.9745 12.9657 59.9745 12.9654C59.9745 12.9651 59.9745 12.9648 59.9745 12.9645C59.9745 12.9643 59.9745 12.964 59.9745 12.9637C59.9745 12.9634 59.9745 12.9631 59.9745 12.9629C59.9745 12.9626 59.9745 12.9623 59.9745 12.962C59.9745 12.9617 59.9745 12.9615 59.9745 12.9612C59.9745 12.9609 59.9745 12.9606 59.9745 12.9603C59.9745 12.9601 59.9745 12.9598 59.9745 12.9595C59.9745 12.9592 59.9745 12.9589 59.9745 12.9587C59.9745 12.9584 59.9745 12.9581 59.9745 12.9578C59.9745 12.9575 59.9745 12.9573 59.9745 12.957C59.9745 12.9567 59.9745 12.9564 59.9745 12.9561C59.9745 12.9559 59.9745 12.9556 59.9745 12.9553C59.9745 12.955 59.9745 12.9547 59.9745 12.9545C59.9745 12.9542 59.9745 12.9539 59.9745 12.9536C59.9745 12.9534 59.9745 12.9531 59.9745 12.9528C59.9745 12.9525 59.9745 12.9522 59.9745 12.952C59.9745 12.9517 59.9745 12.9514 59.9745 12.9511C59.9745 12.9508 59.9745 12.9506 59.9745 12.9503C59.9745 12.95 59.9745 12.9497 59.9745 12.9495C59.9745 12.9492 59.9745 12.9489 59.9745 12.9486C59.9745 12.9483 59.9745 12.9481 59.9745 12.9478C59.9745 12.9475 59.9745 12.9472 59.9745 12.9469C59.9745 12.9467 59.9745 12.9464 59.9745 12.9461C59.9745 12.9458 59.9745 12.9456 59.9745 12.9453C59.9745 12.945 59.9745 12.9447 59.9745 12.9444C59.9745 12.9442 59.9745 12.9439 59.9745 12.9436C59.9745 12.9433 59.9745 12.9431 59.9745 12.9428C59.9745 12.9425 59.9745 12.9422 59.9745 12.9419C59.9745 12.9417 59.9745 12.9414 59.9745 12.9411C59.9745 12.9408 59.9745 12.9406 59.9745 12.9403C59.9745 12.94 59.9745 12.9397 59.9745 12.9394C59.9745 12.9392 59.9745 12.9389 59.9745 12.9386C59.9745 12.9383 59.9745 12.9381 59.9745 12.9378C59.9745 12.9375 59.9745 12.9372 59.9745 12.9369C59.9745 12.9367 59.9745 12.9364 59.9745 12.9361C59.9745 12.9358 59.9745 12.9356 59.9745 12.9353C59.9745 12.935 59.9745 12.9347 59.9745 12.9345C59.9745 12.9342 59.9745 12.9339 59.9745 12.9336C59.9745 12.9333 59.9745 12.9331 59.9745 12.9328C59.9745 12.9325 59.9745 12.9322 59.9745 12.932C59.9745 12.9317 59.9745 12.9314 59.9745 12.9311C59.9745 12.9309 59.9745 12.9306 59.9745 12.9303C59.9745 12.93 59.9745 12.9297 59.9745 12.9295C59.9745 12.9292 59.9745 12.9289 59.9745 12.9286C59.9745 12.9284 59.9745 12.9281 59.9745 12.9278C59.9745 12.9275 59.9745 12.9273 59.9745 12.927C59.9745 12.9267 59.9745 12.9264 59.9745 12.9262C59.9745 12.9259 59.9745 12.9256 59.9745 12.9253C59.9745 12.9251 59.9745 12.9248 59.9745 12.9245C59.9745 12.9242 59.9745 12.9239 59.9745 12.9237C59.9745 12.9234 59.9745 12.9231 59.9745 12.9228C59.9745 12.9226 59.9745 12.9223 59.9745 12.922C59.9745 12.9217 59.9745 12.9215 59.9745 12.9212C59.9745 12.9209 59.9745 12.9206 59.9745 12.9204C59.9745 12.9201 59.9745 12.9198 59.9745 12.9195C59.9745 12.9193 59.9745 12.919 59.9745 12.9187C59.9745 12.9184 59.9745 12.9182 59.9745 12.9179C59.9745 12.9176 59.9745 12.9173 59.9745 12.9171C59.9745 12.9168 59.9745 12.9165 59.9745 12.9162C59.9745 12.916 59.9745 12.9157 59.9745 12.9154C59.9745 12.9151 59.9745 12.9149 59.9745 12.9146C59.9745 12.9143 59.9745 12.914 59.9745 12.9138C59.9745 12.9135 59.9745 12.9132 59.9745 12.9129C59.9745 12.9127 59.9745 12.9124 59.9745 12.9121C59.9745 12.9118 59.9745 12.9116 59.9745 12.9113C59.9745 12.911 59.9745 12.9107 59.9745 12.9105C59.9745 12.9102 59.9745 12.9099 59.9745 12.9096C59.9745 12.9094 59.9745 12.9091 59.9745 12.9088C59.9745 12.9085 59.9745 12.9083 59.9745 12.908C59.9745 12.9077 59.9745 12.9074 59.9745 12.9072C59.9745 12.9069 59.9745 12.9066 59.9745 12.9063C59.9745 12.9061 59.9745 12.9058 59.9745 12.9055C59.9745 12.9052 59.9745 12.905 59.9745 12.9047C59.9745 12.9044 59.9745 12.9041 59.9745 12.9039C59.9745 12.9036 59.9745 12.9033 59.9745 12.9031C59.9745 12.9028 59.9745 12.9025 59.9745 12.9022C59.9745 12.902 59.9745 12.9017 59.9745 12.9014C59.9745 12.9011 59.9745 12.9009 59.9745 12.9006C59.9745 12.9003 59.9745 12.9 59.9745 12.8998C59.9745 12.8995 59.9745 12.8992 59.9745 12.8989C59.9745 12.8987 59.9745 12.8984 59.9745 12.8981C59.9745 12.8979 59.9745 12.8976 59.9745 12.8973C59.9745 12.897 59.9745 12.8968 59.9745 12.8965C59.9745 12.8962 59.9745 12.8959 59.9745 12.8957C59.9745 12.8954 59.9745 12.8951 59.9745 12.8948C59.9745 12.8946 59.9745 12.8943 59.9745 12.894C59.9745 12.8938 59.9745 12.8935 59.9745 12.8932C59.9745 12.8929 59.9745 12.8927 59.9745 12.8924C59.9745 12.8921 59.9745 12.8918 59.9745 12.8916C59.9745 12.8913 59.9745 12.891 59.9745 12.8908C59.9745 12.8905 59.9745 12.8902 59.9745 12.8899C59.9745 12.8897 59.9745 12.8894 59.9745 12.8891C59.9745 12.8888 59.9745 12.8886 59.9745 12.8883C59.9745 12.888 59.9745 12.8878 59.9745 12.8875C59.9745 12.8872 59.9745 12.8869 59.9745 12.8867C59.9745 12.8864 59.9745 12.8861 59.9745 12.8858C59.9745 12.8856 59.9745 12.8853 59.9745 12.885C59.9745 12.8848 59.9745 12.8845 59.9745 12.8842C59.9745 12.8839 59.9745 12.8837 59.9745 12.8834C59.9745 12.8831 59.9745 12.8829 59.9745 12.8826C59.9745 12.8823 59.9745 12.882 59.9745 12.8818C59.9745 12.8815 59.9745 12.8812 59.9745 12.881C59.9745 12.8807 59.9745 12.8804 59.9745 12.8801C59.9745 12.8799 59.9745 12.8796 59.9745 12.8793C59.9745 12.8791 59.9745 12.8788 59.9745 12.8785C59.9745 12.8782 59.9745 12.878 59.9745 12.8777C59.9745 12.8774 59.9745 12.8771 59.9745 12.8769C59.9745 12.8766 59.9745 12.8763 59.9745 12.8761C59.9745 12.8758 59.9745 12.8755 59.9745 12.8753C59.9745 12.875 59.9745 12.8747 59.9745 12.8744C59.9745 12.8742 59.9745 12.8739 59.9745 12.8736C59.9745 12.8734 59.9745 12.8731 59.9745 12.8728C59.9745 12.8725 59.9745 12.8723 59.9745 12.872C59.9745 12.8717 59.9745 12.8715 59.9745 12.8712C59.9745 12.8709 59.9745 12.8706 59.9745 12.8704C59.9745 12.8701 59.9745 12.8698 59.9745 12.8696C59.9745 12.8693 59.9745 12.869 59.9745 12.8688C59.9745 12.8685 59.9745 12.8682 59.9745 12.8679C59.9745 12.8677 59.9745 12.8674 59.9745 12.8671C59.9745 12.8669 59.9745 12.8666 59.9745 12.8663C59.9745 12.866 59.9745 12.8658 59.9745 12.8655C59.9745 12.8652 59.9745 12.865 59.9745 12.8647C59.9745 12.8644 59.9745 12.8642 59.9745 12.8639C59.9745 12.8636 59.9745 12.8633 59.9745 12.8631C59.9745 12.8628 59.9745 12.8625 59.9745 12.8623C59.9745 12.862 59.9745 12.8617 59.9745 12.8615C59.9745 12.8612 59.9745 12.8609 59.9745 12.8606C59.9745 12.8604 59.9745 12.8601 59.9745 12.8598C59.9745 12.8596 59.9745 12.8593 59.9745 12.859C59.9745 12.8588 59.9745 12.8585 59.9745 12.8582C59.9745 12.858 59.9745 12.8577 59.9745 12.8574C59.9745 12.8571 59.9745 12.8569 59.9745 12.8566C59.9745 12.8563 59.9745 12.8561 59.9745 12.8558C59.9745 12.8555 59.9745 12.8553 59.9745 12.855C59.9745 12.8547 59.9745 12.8545 59.9745 12.8542C59.9745 12.8539 59.9745 12.8536 59.9745 12.8534C59.9745 12.8531 59.9745 12.8528 59.9745 12.8526C59.9745 12.8523 59.9745 12.852 59.9745 12.8518C59.9745 12.8515 59.9745 12.8512 59.9745 12.851C59.9745 12.8507 59.9745 12.8504 59.9745 12.8502C59.9745 12.8499 59.9745 12.8496 59.9745 12.8493C59.9745 12.8491 59.9745 12.8488 59.9745 12.8485C59.9745 12.8483 59.9745 12.848 59.9745 12.8477C59.9745 12.8475 59.9745 12.8472 59.9745 12.8469C59.9745 12.8467 59.9745 12.8464 59.9745 12.8461C59.9745 12.8459 59.9745 12.8456 59.9745 12.8453C59.9745 12.8451 59.9745 12.8448 59.9745 12.8445C59.9745 12.8442 59.9745 12.844 59.9745 12.8437C59.9745 12.8434 59.9745 12.8432 59.9745 12.8429C59.9745 12.8426 59.9745 12.8424 59.9745 12.8421C59.9745 12.8418 59.9745 12.8416 59.9745 12.8413C59.9745 12.841 59.9745 12.8408 59.9745 12.8405C59.9745 12.8402 59.9745 12.84 59.9745 12.8397C59.9745 12.8394 59.9745 12.8392 59.9745 12.8389C59.9745 12.8386 59.9745 12.8384 59.9745 12.8381C59.9745 12.8378 59.9745 12.8376 59.9745 12.8373C59.9745 12.837 59.9745 12.8368 59.9745 12.8365C59.9745 12.8362 59.9745 12.836 59.9745 12.8357C59.9745 12.8354 59.9745 12.8351 59.9745 12.8349C59.9745 12.8346 59.9745 12.8343 59.9745 12.8341C59.9745 12.8338 59.9745 12.8335 59.9745 12.8333C59.9745 12.833 59.9745 12.8327 59.9745 12.8325C59.9745 12.8322 59.9745 12.8319 59.9745 12.8317C59.9745 12.8314 59.9745 12.8311 59.9745 12.8309C59.9745 12.8306 59.9745 12.8303 59.9745 12.8301C59.9745 12.8298 59.9745 12.8295 59.9745 12.8293C59.9745 12.829 59.9745 12.8287 59.9745 12.8285C59.9745 12.8282 59.9745 12.8279 59.9745 12.8277C59.9745 12.8274 59.9745 12.8271 59.9745 12.8269C59.9745 12.8266 59.9745 12.8263 59.9745 12.8261C59.9745 12.8258 59.9745 12.8256 59.9745 12.8253C59.9745 12.825 59.9745 12.8248 59.9745 12.8245C59.9745 12.8242 59.9745 12.824 59.9745 12.8237C59.9745 12.8234 59.9745 12.8232 59.9745 12.8229C59.9745 12.8226 59.9745 12.8224 59.9745 12.8221C59.9745 12.8218 59.9745 12.8216 59.9745 12.8213C59.9745 12.821 59.9745 12.8208 59.9745 12.8205C59.9745 12.8202 59.9745 12.82 59.9745 12.8197C59.9745 12.8194 59.9745 12.8192 59.9745 12.8189C59.9745 12.8186 59.9745 12.8184 59.9745 12.8181C59.9745 12.8178 59.9745 12.8176 59.9745 12.8173C59.9745 12.817 59.9745 12.8168 59.9745 12.8165C59.9745 12.8163 59.9745 12.816 59.9745 12.8157C59.9745 12.8155 59.9745 12.8152 59.9745 12.8149C59.9745 12.8147 59.9745 12.8144 59.9745 12.8141C59.9745 12.8139 59.9745 12.8136 59.9745 12.8133C59.9745 12.8131 59.9745 12.8128 59.9745 12.8125C59.9745 12.8123 59.9745 12.812 59.9745 12.8117C59.9745 12.8115 59.9745 12.8112 59.9745 12.811C59.9745 12.8107 59.9745 12.8104 59.9745 12.8102C59.9745 12.8099 59.9745 12.8096 59.9745 12.8094C59.9745 12.8091 59.9745 12.8088 59.9745 12.8086C59.9745 12.8083 59.9745 12.808 59.9745 12.8078C59.9745 12.8075 59.9745 12.8073 59.9745 12.807C59.9745 12.8067 59.9745 12.8065 59.9745 12.8062C59.9745 12.8059 59.9745 12.8057 59.9745 12.8054C59.9745 12.8051 59.9745 12.8049 59.9745 12.8046C59.9745 12.8043 59.9745 12.8041 59.9745 12.8038C59.9745 12.8036 59.9745 12.8033 59.9745 12.803C59.9745 12.8028 59.9745 12.8025 59.9745 12.8022C59.9745 12.802 59.9745 12.8017 59.9745 12.8014C59.9745 12.8012 59.9745 12.8009 59.9745 12.8007C59.9745 12.8004 59.9745 12.8001 59.9745 12.7999C59.9745 12.7996 59.9745 12.7993 59.9745 12.7991C59.9745 12.7988 59.9745 12.7985 59.9745 12.7983C59.9745 12.798 59.9745 12.7978 59.9745 12.7975C59.9745 12.7972 59.9745 12.797 59.9745 12.7967C59.9745 12.7964 59.9745 12.7962 59.9745 12.7959C59.9745 12.7957 59.9745 12.7954 59.9745 12.7951C59.9745 12.7949 59.9745 12.7946 59.9745 12.7943C59.9745 12.7941 59.9745 12.7938 59.9745 12.7935C59.9745 12.7933 59.9745 12.793 59.9745 12.7928C59.9745 12.7925 59.9745 12.7922 59.9745 12.792C59.9745 12.7917 59.9745 12.7914 59.9745 12.7912C59.9745 12.7909 59.9745 12.7907 59.9745 12.7904C59.9745 12.7901 59.9745 12.7899 59.9745 12.7896C59.9745 12.7893 59.9745 12.7891 59.9745 12.7888C59.9745 12.7886 59.9745 12.7883 59.9745 12.788C59.9745 12.7878 59.9745 12.7875 59.9745 12.7872C59.9745 12.787 59.9745 12.7867 59.9745 12.7865C59.9745 12.7862 59.9745 12.7859 59.9745 12.7857C59.9745 12.7854 59.9745 12.7851 59.9745 12.7849C59.9745 12.7846 59.9745 12.7844 59.9745 12.7841C59.9745 12.7838 59.9745 12.7836 59.9745 12.7833C59.9745 12.7831 59.9745 12.7828 59.9745 12.7825C59.9745 12.7823 59.9745 12.782 59.9745 12.7817C59.9745 12.7815 59.9745 12.7812 59.9745 12.781C59.9745 12.7807 59.9745 12.7804 59.9745 12.7802C59.9745 12.7799 59.9745 12.7797 59.9745 12.7794C59.9745 12.7791 59.9745 12.7789 59.9745 12.7786C59.9745 12.7783 59.9745 12.7781 59.9745 12.7778C59.9745 12.7776 59.9745 12.7773 59.9745 12.777C59.9745 12.7768 59.9745 12.7765 59.9745 12.7763C59.9745 12.776 59.9745 12.7757 59.9745 12.7755C59.9745 12.7752 59.9745 12.775 59.9745 12.7747C59.9745 12.7744 59.9745 12.7742 59.9745 12.7739C59.9745 12.7736 59.9745 12.7734 59.9745 12.7731C59.9745 12.7729 59.9745 12.7726 59.9745 12.7723C59.9745 12.7721 59.9745 12.7718 59.9745 12.7716C59.9745 12.7713 59.9745 12.771 59.9745 12.7708C59.9745 12.7705 59.9745 12.7703 59.9745 12.77C59.9745 12.7697 59.9745 12.7695 59.9745 12.7692C59.9745 12.769 59.9745 12.7687 59.9745 12.7684C59.9745 12.7682 59.9745 12.7679 59.9745 12.7677C59.9745 12.7674 59.9745 12.7671 59.9745 12.7669C59.9745 12.7666 59.9745 12.7664 59.9745 12.7661C59.9745 12.7658 59.9745 12.7656 59.9745 12.7653C59.9745 12.7651 59.9745 12.7648 59.9745 12.7645C59.9745 12.7643 59.9745 12.764 59.9745 12.7638C59.9745 12.7635 59.9745 12.7632 59.9745 12.763C59.9745 12.7627 59.9745 12.7625 59.9745 12.7622C59.9745 12.7619 59.9745 12.7617 59.9745 12.7614C59.9745 12.7612 59.9745 12.7609 59.9745 12.7606C59.9745 12.7604 59.9745 12.7601 59.9745 12.7599C59.9745 12.7596 59.9745 12.7593 59.9745 12.7591C59.9745 12.7588 59.9745 12.7586 59.9745 12.7583C59.9745 12.758 59.9745 12.7578 59.9745 12.7575C59.9745 12.7573 59.9745 12.757 59.9745 12.7568C59.9745 12.7565 59.9745 12.7562 59.9745 12.756C59.9745 12.7557 59.9745 12.7555 59.9745 12.7552C59.9745 12.7549 59.9745 12.7547 59.9745 12.7544C59.9745 12.7542 59.9745 12.7539 59.9745 12.7536C59.9745 12.7534 59.9745 12.7531 59.9745 12.7529C59.9745 12.7526 59.9745 12.7524 59.9745 12.7521C59.9745 12.7518 59.9745 12.7516 59.9745 12.7513C59.9745 12.7511 59.9745 12.7508 59.9745 12.7505C59.9745 12.7503 59.9745 12.75 59.9745 12.7498C59.9745 12.7495 59.9745 12.7493 59.9745 12.749C59.9745 12.7487 59.9745 12.7485 59.9745 12.7482C59.9745 12.748 59.9745 12.7477 59.9745 12.7474C59.9745 12.7472 59.9745 12.7469 59.9745 12.7467C59.9745 12.7464 59.9745 12.7462 59.9745 12.7459C59.9745 12.7456 59.9745 12.7454 59.9745 12.7451C59.9745 12.7449 59.9745 12.7446 59.9745 12.7444C59.9745 12.7441 59.9745 12.7438 59.9745 12.7436C59.9745 12.7433 59.9745 12.7431 59.9745 12.7428C59.9745 12.7425 59.9745 12.7423 59.9745 12.742C59.9745 12.7418 59.9745 12.7415 59.9745 12.7413C59.9745 12.741 59.9745 12.7407 59.9745 12.7405C59.9745 12.7402 59.9745 12.74 59.9745 12.7397C59.9745 12.7395 59.9745 12.7392 59.9745 12.7389C59.9745 12.7387 59.9745 12.7384 59.9745 12.7382C59.9745 12.7379 59.9745 12.7377 59.9745 12.7374C59.9745 12.7371 59.9745 12.7369 59.9745 12.7366C59.9745 12.7364 59.9745 12.7361 59.9745 12.7359C59.9745 12.7356 59.9745 12.7353 59.9745 12.7351C59.9745 12.7348 59.9745 12.7346 59.9745 12.7343C59.9745 12.7341 59.9745 12.7338 59.9745 12.7336C59.9745 12.7333 59.9745 12.733 59.9745 12.7328C59.9745 12.7325 59.9745 12.7323 59.9745 12.732C59.9745 12.7318 59.9745 12.7315 59.9745 12.7312C59.9745 12.731 59.9745 12.7307 59.9745 12.7305C59.9745 12.7302 59.9745 12.73 59.9745 12.7297C59.9745 12.7294 59.9745 12.7292 59.9745 12.7289C59.9745 12.7287 59.9745 12.7284 59.9745 12.7282C59.9745 12.7279 59.9745 12.7277 59.9745 12.7274C59.9745 12.7271 59.9745 12.7269 59.9745 12.7266C59.9745 12.7264 59.9745 12.7261 59.9745 12.7259C59.9745 12.7256 59.9745 12.7254 59.9745 12.7251C59.9745 12.7248 59.9745 12.7246 59.9745 12.7243C59.9745 12.7241 59.9745 12.7238 59.9745 12.7236C59.9745 12.7233 59.9745 12.7231 59.9745 12.7228C59.9745 12.7225 59.9745 12.7223 59.9745 12.722C59.9745 12.7218 59.9745 12.7215 59.9745 12.7213C59.9745 12.721 59.9745 12.7208 59.9745 12.7205C59.9745 12.7202 59.9745 12.72 59.9745 12.7197C59.9745 12.7195 59.9745 12.7192 59.9745 12.719C59.9745 12.7187 59.9745 12.7185 59.9745 12.7182C59.9745 12.7179 59.9745 12.7177 59.9745 12.7174C59.9745 12.7172 59.9745 12.7169 59.9745 12.7167C59.9745 12.7164 59.9745 12.7162 59.9745 12.7159C59.9745 12.7157 59.9745 12.7154 59.9745 12.7151C59.9745 12.7149 59.9745 12.7146 59.9745 12.7144C59.9745 12.7141 59.9745 12.7139 59.9745 12.7136C59.9745 12.7134 59.9745 12.7131 59.9745 12.7129C59.9745 12.7126 59.9745 12.7123 59.9745 12.7121C59.9745 12.7118 59.9745 12.7116 59.9745 12.7113C59.9745 12.7111 59.9745 12.7108 59.9745 12.7106C59.9745 12.7103 59.9745 12.7101 59.9745 12.7098C59.9745 12.7096 59.9745 12.7093 59.9745 12.709C59.9745 12.7088 59.9745 12.7085 59.9745 12.7083C59.9745 12.708 59.9745 12.7078 59.9745 12.7075C59.9745 12.7073 59.9745 12.707 59.9745 12.7068C59.9745 12.7065 59.9745 12.7063 59.9745 12.706C59.9745 12.7057 59.9745 12.7055 59.9745 12.7052C59.9745 12.705 59.9745 12.7047 59.9745 12.7045C59.9745 12.7042 59.9745 12.704 59.9745 12.7037C59.9745 12.7035 59.9745 12.7032 59.9745 12.703C59.9745 12.7027 59.9745 12.7024 59.9745 12.7022C59.9745 12.7019 59.9745 12.7017 59.9745 12.7014C59.9745 12.7012 59.9745 12.7009 59.9745 12.7007C59.9745 12.7004 59.9745 12.7002 59.9745 12.6999C59.9745 12.6997 59.9745 12.6994 59.9745 12.6992C59.9745 12.6989 59.9745 12.6987 59.9745 12.6984C59.9745 12.6981 59.9745 12.6979 59.9745 12.6976C59.9745 12.6974 59.9745 12.6971 59.9745 12.6969C59.9745 12.6966 59.9745 12.6964 59.9745 12.6961C59.9745 12.6959 59.9745 12.6956 59.9745 12.6954C59.9745 12.6951 59.9745 12.6949 59.9745 12.6946C59.9745 12.6944 59.9745 12.6941 59.9745 12.6939C59.9745 12.6936 59.9745 12.6933 59.9745 12.6931C59.9745 12.6928 59.9745 12.6926 59.9745 12.6923C59.9745 12.6921 59.9745 12.6918 59.9745 12.6916C59.9745 12.6913 59.9745 12.6911 59.9745 12.6908C59.9745 12.6906 59.9745 12.6903 59.9745 12.6901C59.9745 12.6898 59.9745 12.6896 59.9745 12.6893C59.9745 12.6891 59.9745 12.6888 59.9745 12.6886C59.9745 12.6883 59.9745 12.6881 59.9745 12.6878C59.9745 12.6876 59.9745 12.6873 59.9745 12.687C59.9745 12.6868 59.9745 12.6865 59.9745 12.6863C59.9745 12.686 59.9745 12.6858 59.9745 12.6855C59.9745 12.6853 59.9745 12.685 59.9745 12.6848C59.9745 12.6845 59.9745 12.6843 59.9745 12.684C59.9745 12.6838 59.9745 12.6835 59.9745 12.6833C59.9745 12.683 59.9745 12.6828 59.9745 12.6825C59.9745 12.6823 59.9745 12.682 59.9745 12.6818C59.9745 12.6815 59.9745 12.6813 59.9745 12.681C59.9745 12.6808 59.9745 12.6805 59.9745 12.6803C59.9745 12.68 59.9745 12.6798 59.9745 12.6795C59.9745 12.6793 59.9745 12.679 59.9745 12.6788C59.9745 12.6785 59.9745 12.6783 59.9745 12.678C59.9745 12.6778 59.9745 12.6775 59.9745 12.6773C59.9745 12.677 59.9745 12.6768 59.9745 12.6765C59.9745 12.6763 59.9745 12.676 59.9745 12.6758C59.9745 12.6755 59.9745 12.6753 59.9745 12.675C59.9745 12.6748 59.9745 12.6745 59.9745 12.6743C59.9745 12.674 59.9745 12.6737 59.9745 12.6735C59.9745 12.6733 59.9745 12.673 59.9745 12.6728C59.9745 12.6725 59.9745 12.6723 59.9745 12.672H57.9745ZM57.9745 13.088C57.9745 13.7545 57.7632 14.1879 57.3936 14.5066L58.6994 16.0214C59.5671 15.2734 59.9745 14.2562 59.9745 13.088H57.9745ZM57.4089 14.4936C57.0243 14.8119 56.4243 15.032 55.4865 15.032V17.032C56.7247 17.032 57.8314 16.7401 58.6841 16.0344L57.4089 14.4936ZM58.3985 7.224C57.7076 7.224 56.8032 7.11074 55.6677 6.86298L55.2413 8.81702C56.4525 9.08126 57.5107 9.224 58.3985 9.224V7.224ZM55.6845 6.86682C54.542 6.59676 53.7378 6.32055 53.2259 6.05578L52.3071 7.83222C53.0325 8.20745 54.0204 8.52857 55.2245 8.81318L55.6845 6.86682ZM53.7626 7.03254L54.1466 2.71254L52.1544 2.53546L51.7704 6.85546L53.7626 7.03254ZM53.1505 3.624C54.9438 3.624 56.6078 3.50377 58.1399 3.25953L57.8251 1.28447C56.4132 1.50956 54.8559 1.624 53.1505 1.624V3.624ZM58.1377 3.25988C59.6693 3.0192 61.4706 2.63876 63.537 2.12214L63.052 0.181856C61.0224 0.689236 59.2823 1.05547 57.8273 1.28412L58.1377 3.25988ZM63.4185 2.14428C63.6348 2.11724 63.8456 2.0757 64.0492 2.01752L63.4998 0.0944748C63.4047 0.12163 63.2955 0.144087 63.1705 0.159719L63.4185 2.14428ZM64.017 2.02614C64.1971 1.98113 64.3679 1.93561 64.5292 1.88952L63.9798 -0.0335255C63.8424 0.00572205 63.6932 0.0455379 63.532 0.0858593L64.017 2.02614ZM63.2771 1.13933C63.4376 1.88175 63.5105 2.50155 63.5105 3.008H65.5105C65.5105 2.31978 65.4127 1.55292 65.2319 0.716667L63.2771 1.13933ZM63.5105 3.008C63.5105 4.38023 63.0634 5.36778 62.2253 6.09084L63.5317 7.60516C64.8696 6.45089 65.5105 4.87844 65.5105 3.008H63.5105ZM62.2339 6.08348C61.3789 6.80437 60.1407 7.224 58.3985 7.224V9.224C60.4536 9.224 62.2021 8.7263 63.5231 7.61252L62.2339 6.08348ZM65.5635 24.128L64.8276 24.8051L64.8348 24.8129L64.8421 24.8205L65.5635 24.128ZM66.2035 16.352L65.2762 15.9777L65.2744 15.9821L66.2035 16.352ZM71.3555 5.536L72.246 5.99097L72.4499 5.59187L72.2877 5.17408L71.3555 5.536ZM70.2995 2.816L69.7805 1.96121L69.0639 2.39633L69.3673 3.17792L70.2995 2.816ZM73.5635 1.28L73.8547 2.23667L73.8641 2.23379L73.8735 2.23073L73.5635 1.28ZM79.3875 1.6L78.6804 2.30711L79.2037 2.83042L79.8571 2.48287L79.3875 1.6ZM84.6355 1.92L85.4492 1.33876V1.33876L84.6355 1.92ZM85.4035 8.896L84.4039 8.8666L84.4036 8.87736L84.4035 8.88812L85.4035 8.896ZM85.4355 15.424L84.4357 15.45L84.4363 15.4634L85.4355 15.424ZM87.4515 23.488L88.0645 24.2781L88.8304 23.6838L88.2602 22.8998L87.4515 23.488ZM80.6995 23.872L81.4066 23.1649L80.6995 23.872ZM79.1315 20.576L78.1531 20.7827L78.1548 20.7908L78.1566 20.7988L79.1315 20.576ZM78.6835 14.656L79.6835 14.6648V14.656H78.6835ZM78.7155 9.408L77.7157 9.38301L77.7156 9.39534L78.7155 9.408ZM78.8755 5.024L79.8741 5.07656L79.9295 4.024H78.8755V5.024ZM78.4915 5.024V4.024H77.9361L77.6426 4.49544L78.4915 5.024ZM73.4675 14.272L74.3796 14.6821L74.3807 14.6794L73.4675 14.272ZM71.7715 22.112L72.7466 21.8904V21.8904L71.7715 22.112ZM72.2835 23.488L72.8647 24.3017L73.5735 23.7955L73.1693 23.024L72.2835 23.488ZM70.1715 24.512L69.8704 23.5584L69.859 23.562L69.8478 23.5658L70.1715 24.512ZM70.5875 15.04V14.04H69.7554L69.6042 14.8582L70.5875 15.04ZM81.6595 15.04L82.6457 15.2057L82.8416 14.04H81.6595V15.04ZM81.0195 18.848V19.848H81.8655L82.0057 19.0137L81.0195 18.848ZM69.8835 18.848L68.9002 18.6662L68.6817 19.848H69.8835V18.848ZM67.8035 23.928C67.0016 23.928 66.5525 23.7142 66.2849 23.4355L64.8421 24.8205C65.5985 25.6085 66.6427 25.928 67.8035 25.928V23.928ZM66.2994 23.4509C66.0376 23.1663 65.8275 22.6687 65.8275 21.792H63.8275C63.8275 22.9633 64.1081 24.023 64.8276 24.8051L66.2994 23.4509ZM65.8275 21.792C65.8275 20.6631 66.2284 18.9929 67.1326 16.7219L65.2744 15.9821C64.3439 18.3191 63.8275 20.2756 63.8275 21.792H65.8275ZM67.1308 16.7263C68.0517 14.445 69.7515 10.8733 72.246 5.99097L70.465 5.08103C67.9675 9.96938 66.2327 13.6083 65.2762 15.9777L67.1308 16.7263ZM72.2877 5.17408L71.2317 2.45408L69.3673 3.17792L70.4233 5.89792L72.2877 5.17408ZM70.8185 3.67079C71.9656 2.97431 72.9761 2.50405 73.8547 2.23667L73.2723 0.323324C72.1882 0.653276 71.0227 1.20702 69.7805 1.96121L70.8185 3.67079ZM73.8735 2.23073C74.7439 1.94692 75.7047 1.8 76.7635 1.8V-0.200001C75.5183 -0.200001 74.3458 -0.0269203 73.2535 0.329269L73.8735 2.23073ZM76.7635 1.8C77.87 1.8 78.4217 2.04838 78.6804 2.30711L80.0946 0.892891C79.2867 0.0849476 78.089 -0.200001 76.7635 -0.200001V1.8ZM79.8571 2.48287C80.7745 1.99491 81.506 1.8 82.0755 1.8V-0.200001C81.0663 -0.200001 80.0059 0.138418 78.9179 0.717127L79.8571 2.48287ZM82.0755 1.8C83.0258 1.8 83.5276 2.08934 83.8218 2.50124L85.4492 1.33876C84.6768 0.257324 83.4718 -0.200001 82.0755 -0.200001V1.8ZM83.8218 2.50124C84.1708 2.98987 84.4355 3.92532 84.4355 5.504H86.4355C86.4355 3.79735 86.1669 2.34346 85.4492 1.33876L83.8218 2.50124ZM84.4355 5.504C84.4355 7.03848 84.4248 8.15683 84.4039 8.8666L86.4031 8.9254C86.4249 8.1845 86.4355 7.04152 86.4355 5.504H84.4355ZM84.4035 8.88812C84.3822 11.6025 84.3928 13.7912 84.4358 15.45L86.4352 15.398C86.3929 13.7715 86.3822 11.6081 86.4035 8.90387L84.4035 8.88812ZM84.4363 15.4634C84.5022 17.1343 84.6895 18.7057 85.0013 20.1755L86.9577 19.7605C86.6722 18.4143 86.4968 16.9564 86.4347 15.3846L84.4363 15.4634ZM85.0013 20.1755C85.3223 21.6888 85.8602 23.0001 86.6428 24.0762L88.2602 22.8998C87.6775 22.0986 87.2341 21.0632 86.9577 19.7605L85.0013 20.1755ZM86.8385 22.6979C85.7587 23.5357 84.6373 23.928 83.4515 23.928V25.928C85.1243 25.928 86.6696 25.3603 88.0645 24.2781L86.8385 22.6979ZM83.4515 23.928C82.5469 23.928 81.8971 23.6554 81.4066 23.1649L79.9924 24.5791C80.9099 25.4966 82.0948 25.928 83.4515 25.928V23.928ZM81.4066 23.1649C80.8891 22.6474 80.4266 21.7543 80.1064 20.3532L78.1566 20.7988C78.519 22.3843 79.1019 23.6886 79.9924 24.5791L81.4066 23.1649ZM80.1099 20.3693C79.8108 18.9537 79.6624 17.0604 79.6835 14.6648L77.6835 14.6472C77.6619 17.1156 77.8122 19.169 78.1531 20.7827L80.1099 20.3693ZM79.6835 14.656C79.6835 12.8466 79.6941 11.1015 79.7154 9.42066L77.7156 9.39534C77.6942 11.0852 77.6835 12.8388 77.6835 14.656H79.6835ZM79.7152 9.43299C79.7577 7.73218 79.8108 6.28056 79.8741 5.07656L77.8769 4.97144C77.8122 6.19944 77.7586 7.67048 77.7158 9.38301L79.7152 9.43299ZM78.8755 4.024H78.4915V6.024H78.8755V4.024ZM77.6426 4.49544C75.5135 7.91494 73.815 11.0388 72.5543 13.8646L74.3807 14.6794C75.5947 11.9586 77.2455 8.91706 79.3404 5.55256L77.6426 4.49544ZM72.5555 13.8619C71.3126 16.6262 70.6115 18.864 70.6115 20.48H72.6115C72.6115 19.3227 73.1477 17.4218 74.3796 14.6821L72.5555 13.8619ZM70.6115 20.48C70.6115 21.1533 70.6693 21.7744 70.7964 22.3336L72.7466 21.8904C72.6604 21.5109 72.6115 21.0441 72.6115 20.48H70.6115ZM70.7964 22.3336C70.9231 22.8914 71.1249 23.4313 71.3977 23.952L73.1693 23.024C72.9727 22.6487 72.8332 22.2712 72.7466 21.8904L70.7964 22.3336ZM71.7023 22.6743C71.2027 23.0311 70.5964 23.3291 69.8704 23.5584L70.4726 25.4656C71.3679 25.1829 72.1697 24.7982 72.8647 24.3017L71.7023 22.6743ZM69.8478 23.5658C69.1294 23.8116 68.4494 23.928 67.8035 23.928V25.928C68.6936 25.928 69.5923 25.7671 70.4952 25.4582L69.8478 23.5658ZM70.5875 16.04H81.6595V14.04H70.5875V16.04ZM80.6733 14.8743L80.0333 18.6823L82.0057 19.0137L82.6457 15.2057L80.6733 14.8743ZM81.0195 17.848H69.8835V19.848H81.0195V17.848ZM70.8668 19.0298L71.5708 15.2218L69.6042 14.8582L68.9002 18.6662L70.8668 19.0298ZM92.8467 23.392L92.3005 24.2296L92.3075 24.2342L92.3146 24.2386L92.8467 23.392ZM91.0547 15.488L92.0424 15.6446L91.0547 15.488ZM92.6547 6.528L93.6377 6.71169L93.6991 6.38341L93.5508 6.08414L92.6547 6.528ZM90.9587 3.104L90.4161 2.26403L89.6666 2.74824L90.0627 3.54786L90.9587 3.104ZM98.6708 13.056L97.6852 12.8864L97.684 12.8936L98.6708 13.056ZM97.9027 17.856L98.8906 18.0112L98.891 18.0091L97.9027 17.856ZM97.5508 20.704H96.5508V21.3409L97.1279 21.6102L97.5508 20.704ZM103.567 19.968L104.139 20.788L104.142 20.7858L103.567 19.968ZM106.255 16.608L107.167 17.0167L107.17 17.0116L106.255 16.608ZM105.711 6.72L104.938 7.35477L104.945 7.36287L105.711 6.72ZM99.8228 5.28L100.159 6.22174L100.168 6.21846L100.177 6.215L99.8228 5.28ZM97.8708 6.304L97.316 5.47195L97.2799 5.49602L97.2461 5.52313L97.8708 6.304ZM97.5188 6.56L98.0332 7.4175L98.0536 7.40525L98.0734 7.39205L97.5188 6.56ZM97.1988 6.784L96.2596 7.12758L96.7375 8.43366L97.8234 7.56487L97.1988 6.784ZM96.2388 4.16L95.5802 3.40742L95.0639 3.85924L95.2996 4.50358L96.2388 4.16ZM96.7507 3.744L97.3507 4.544L97.3578 4.53874L97.3647 4.53335L96.7507 3.744ZM97.2948 3.296L96.685 2.50338L96.66 2.52263L96.6362 2.54342L97.2948 3.296ZM99.6308 1.792L100.078 2.68643V2.68643L99.6308 1.792ZM101.871 1.024L102.062 2.00561L102.072 2.00362L102.082 2.00141L101.871 1.024ZM109.583 2.016L109.091 2.88662L109.1 2.89195L109.583 2.016ZM112.975 5.472L112.091 5.93931L112.095 5.94689L112.099 5.9544L112.975 5.472ZM112.271 17.952L113.13 18.4627L112.271 17.952ZM106.895 23.008L107.355 23.8958L107.362 23.8924L106.895 23.008ZM99.0547 23.8C96.5099 23.8 94.652 23.3456 93.3789 22.5454L92.3146 24.2386C94.0282 25.3157 96.3089 25.8 99.0547 25.8V23.8ZM93.393 22.5544C92.1895 21.7695 91.6387 20.7544 91.6387 19.424H89.6387C89.6387 21.4643 90.56 23.0945 92.3005 24.2296L93.393 22.5544ZM91.6387 19.424C91.6387 18.6314 91.7668 17.3833 92.0424 15.6446L90.0671 15.3314C89.7881 17.0913 89.6387 18.4673 89.6387 19.424H91.6387ZM92.0424 15.6446C92.3174 13.9103 92.8484 10.9357 93.6377 6.71169L91.6718 6.34431C90.8824 10.5683 90.3468 13.5671 90.0671 15.3314L92.0424 15.6446ZM93.5508 6.08414L91.8548 2.66014L90.0627 3.54786L91.7587 6.97186L93.5508 6.08414ZM91.5014 3.94397C93.8188 2.44686 95.8272 1.768 97.5508 1.768V-0.232C95.3063 -0.232 92.92 0.646477 90.4161 2.26403L91.5014 3.94397ZM97.5508 1.768C98.1594 1.768 98.4535 1.9441 98.6252 2.15368C98.8281 2.40146 99.0147 2.8844 99.0147 3.776H101.015C101.015 2.66227 100.791 1.64121 100.172 0.886314C99.5227 0.0932331 98.5847 -0.232 97.5508 -0.232V1.768ZM99.0147 3.776C99.0147 4.18157 98.9153 5.12677 98.6891 6.68867C98.4669 8.22262 98.1326 10.2874 97.6852 12.8864L99.6563 13.2256C100.105 10.6193 100.443 8.53471 100.668 6.97533C100.89 5.4439 101.015 4.35176 101.015 3.776H99.0147ZM97.684 12.8936C97.4062 14.5817 97.1497 16.1848 96.9145 17.7029L98.891 18.0091C99.1251 16.4979 99.3806 14.901 99.6575 13.2184L97.684 12.8936ZM96.9149 17.7008C96.6842 19.1688 96.5508 20.2038 96.5508 20.704H98.5508C98.5508 20.3935 98.652 19.5299 98.8906 18.0112L96.9149 17.7008ZM97.1279 21.6102C97.9151 21.9776 98.7766 22.152 99.6947 22.152V20.152C99.0342 20.152 98.4664 20.0278 97.9736 19.7978L97.1279 21.6102ZM99.6947 22.152C101.339 22.152 102.832 21.7008 104.139 20.788L102.994 19.148C102.041 19.8139 100.952 20.152 99.6947 20.152V22.152ZM104.142 20.7858C105.457 19.8603 106.462 18.5914 107.167 17.0167L105.342 16.1993C104.767 17.4833 103.98 18.4544 102.991 19.1502L104.142 20.7858ZM107.17 17.0116C107.873 15.4168 108.215 13.6444 108.215 11.712H106.215C106.215 13.4062 105.916 14.8979 105.34 16.2044L107.17 17.0116ZM108.215 11.712C108.215 9.42985 107.678 7.50851 106.477 6.07713L104.945 7.36287C105.749 8.32083 106.215 9.72748 106.215 11.712H108.215ZM106.483 6.08526C105.286 4.62716 103.619 3.928 101.615 3.928V5.928C103.109 5.928 104.173 6.42351 104.938 7.35474L106.483 6.08526ZM101.615 3.928C100.901 3.928 100.183 4.07367 99.4681 4.345L100.177 6.215C100.699 6.017 101.177 5.928 101.615 5.928V3.928ZM99.4864 4.33826C98.7914 4.58648 98.067 4.97132 97.316 5.47195L98.4255 7.13605C99.0825 6.69801 99.6594 6.40019 100.159 6.22174L99.4864 4.33826ZM97.2461 5.52313C97.1646 5.58832 97.0709 5.65669 96.9641 5.72795L98.0734 7.39205C98.2226 7.29264 98.3636 7.19035 98.4954 7.08487L97.2461 5.52313ZM97.0043 5.7025C96.8557 5.79166 96.7123 5.8925 96.5741 6.00313L97.8234 7.56487C97.8985 7.50483 97.9685 7.45634 98.0332 7.4175L97.0043 5.7025ZM98.1379 6.44042L97.1779 3.81642L95.2996 4.50358L96.2596 7.12758L98.1379 6.44042ZM96.8973 4.91257C97.0502 4.77875 97.2014 4.65602 97.3507 4.544L96.1507 2.944C95.9588 3.08797 95.7686 3.24258 95.5802 3.40742L96.8973 4.91257ZM97.3647 4.53335C97.5708 4.37303 97.7671 4.21147 97.9533 4.04858L96.6362 2.54342C96.4811 2.6792 96.3147 2.8163 96.1368 2.95465L97.3647 4.53335ZM97.9045 4.08862C98.6996 3.47694 99.4238 3.01351 100.078 2.68643L99.1835 0.897572C98.387 1.29582 97.5539 1.83505 96.685 2.50338L97.9045 4.08862ZM100.078 2.68643C100.725 2.36282 101.386 2.13702 102.062 2.00561L101.68 0.0423832C100.82 0.209648 99.987 0.495844 99.1835 0.897573L100.078 2.68643ZM102.082 2.00141C102.789 1.84856 103.602 1.768 104.527 1.768V-0.232C103.489 -0.232 102.531 -0.141895 101.659 0.0465832L102.082 2.00141ZM104.527 1.768C106.275 1.768 107.787 2.14944 109.091 2.88656L110.075 1.14544C108.435 0.218557 106.576 -0.232 104.527 -0.232V1.768ZM109.1 2.89195C110.401 3.60798 111.392 4.61751 112.091 5.93931L113.859 5.00469C112.979 3.33982 111.709 2.04535 110.065 1.14005L109.1 2.89195ZM112.099 5.9544C112.816 7.25711 113.191 8.79294 113.191 10.592H115.191C115.191 8.50839 114.755 6.63088 113.851 4.98959L112.099 5.9544ZM113.191 10.592C113.191 13.1824 112.59 15.456 111.411 17.4413L113.13 18.4627C114.511 16.1386 115.191 13.5056 115.191 10.592H113.191ZM111.411 17.4413C110.229 19.4311 108.576 20.99 106.428 22.1236L107.362 23.8924C109.822 22.594 111.753 20.7822 113.13 18.4627L111.411 17.4413ZM106.434 22.1202C104.29 23.2323 101.838 23.8 99.0547 23.8V25.8C102.117 25.8 104.892 25.173 107.355 23.8958L106.434 22.1202ZM119.485 23.616L119.018 24.5001L119.485 23.616ZM117.661 18.656L118.568 19.0771L118.574 19.0651L117.661 18.656ZM118.813 17.088L119.628 16.5081L118.989 15.6102L118.157 16.3334L118.813 17.088ZM121.885 20.032L121.364 20.8853L121.371 20.8895L121.885 20.032ZM129.181 20.48L129.628 21.3744L129.181 20.48ZM129.853 17.568L129.169 18.2975L129.192 18.3195L129.217 18.3399L129.853 17.568ZM128.541 16.768L128.138 17.6833L128.154 17.6902L128.17 17.6965L128.541 16.768ZM126.269 15.904L125.938 16.8475L125.94 16.8485L126.269 15.904ZM122.333 14.304L121.886 15.1985L121.893 15.2021L122.333 14.304ZM119.645 12.128L118.862 12.7506L118.871 12.7612L119.645 12.128ZM120.125 4.256L119.392 3.57603L119.385 3.58333L120.125 4.256ZM124.477 1.632L124.177 0.677908L124.174 0.678925L124.477 1.632ZM134.941 1.312L134.66 2.27163L134.669 2.27448L134.679 2.27714L134.941 1.312ZM137.821 2.784L138.516 2.0654V2.0654L137.821 2.784ZM137.661 7.52L137.034 6.74117L137.023 6.74998L137.661 7.52ZM132.029 7.584L131.456 8.40323L131.462 8.4081L131.47 8.41285L132.029 7.584ZM130.013 4.992L130.93 4.59391L130.64 3.92547L129.915 3.9968L130.013 4.992ZM126.781 5.952L127.279 6.81891L127.288 6.81427L127.296 6.80949L126.781 5.952ZM126.045 8.928L125.383 9.67784L126.045 8.928ZM127.421 9.76L127.031 10.681L127.052 10.6898L127.074 10.6977L127.421 9.76ZM129.757 10.56L129.447 11.5107L129.452 11.5124L129.757 10.56ZM133.661 12.064L133.221 12.9622L133.229 12.966L133.237 12.9697L133.661 12.064ZM136.253 14.112L135.476 14.7412L135.484 14.7513L135.492 14.7613L136.253 14.112ZM135.741 21.536L135.027 20.8358L135.027 20.8359L135.741 21.536ZM131.613 24L131.915 24.9535L131.926 24.9499L131.613 24ZM126.397 23.8C123.329 23.8 121.226 23.405 119.952 22.7319L119.018 24.5001C120.731 25.4057 123.235 25.8 126.397 25.8V23.8ZM119.952 22.7319C118.687 22.0632 118.245 21.2889 118.245 20.416H116.245C116.245 22.2311 117.296 23.5901 119.018 24.5001L119.952 22.7319ZM118.245 20.416C118.245 20.005 118.343 19.5614 118.568 19.0771L116.754 18.2349C116.424 18.9453 116.245 19.675 116.245 20.416H118.245ZM118.574 19.0651C118.794 18.573 119.093 18.17 119.469 17.8426L118.157 16.3334C117.552 16.8594 117.083 17.5017 116.748 18.2469L118.574 19.0651ZM117.998 17.6679C118.961 19.0208 120.081 20.1014 121.364 20.8853L122.406 19.1787C121.385 18.5546 120.457 17.6725 119.628 16.5081L117.998 17.6679ZM121.371 20.8895C122.724 21.7015 124.295 22.088 126.045 22.088V20.088C124.595 20.088 123.393 19.7705 122.399 19.1745L121.371 20.8895ZM126.045 22.088C127.42 22.088 128.634 21.8718 129.628 21.3744L128.734 19.5856C128.107 19.8989 127.23 20.088 126.045 20.088V22.088ZM129.628 21.3744C130.152 21.1124 130.605 20.7544 130.925 20.2747C131.249 19.7887 131.397 19.2363 131.397 18.656H129.397C129.397 18.8863 129.342 19.0433 129.261 19.1653C129.175 19.2936 129.02 19.4422 128.734 19.5856L129.628 21.3744ZM131.397 18.656C131.397 17.8978 131.056 17.2629 130.489 16.7961L129.217 18.3399C129.376 18.4704 129.397 18.5608 129.397 18.656H131.397ZM130.537 16.8385C130.087 16.4163 129.536 16.0889 128.912 15.8395L128.17 17.6965C128.613 17.8737 128.937 18.0797 129.169 18.2975L130.537 16.8385ZM128.944 15.8527C128.374 15.6021 127.588 15.304 126.598 14.9595L125.94 16.8485C126.913 17.1867 127.641 17.4645 128.138 17.6833L128.944 15.8527ZM126.6 14.9605C125.044 14.4138 123.771 13.895 122.773 13.4059L121.893 15.2021C122.985 15.737 124.336 16.2849 125.938 16.8475L126.6 14.9605ZM122.78 13.4096C121.89 12.9643 121.103 12.3309 120.419 11.4948L118.871 12.7612C119.723 13.8024 120.728 14.6197 121.886 15.1984L122.78 13.4096ZM120.428 11.5055C119.847 10.776 119.525 9.82421 119.525 8.576H117.525C117.525 10.1865 117.949 11.6026 118.862 12.7505L120.428 11.5055ZM119.525 8.576C119.525 7.09742 119.979 5.90319 120.865 4.92867L119.385 3.58333C118.138 4.95548 117.525 6.64124 117.525 8.576H119.525ZM120.858 4.93594C121.808 3.91134 123.1 3.11867 124.78 2.58507L124.174 0.678925C122.227 1.29733 120.618 2.25399 119.392 3.57606L120.858 4.93594ZM124.777 2.58608C126.5 2.04505 128.434 1.768 130.589 1.768V-0.232C128.264 -0.232 126.124 0.0669441 124.177 0.677914L124.777 2.58608ZM130.589 1.768C132.184 1.768 133.536 1.9422 134.66 2.27163L135.222 0.352369C133.872 -0.0435314 132.322 -0.232 130.589 -0.232V1.768ZM134.679 2.27714C135.839 2.59163 136.626 3.01895 137.126 3.5026L138.516 2.0654C137.694 1.26905 136.56 0.715034 135.203 0.346859L134.679 2.27714ZM137.126 3.5026C137.621 3.98209 137.813 4.45787 137.813 4.96H139.813C139.813 3.8408 139.344 2.86591 138.516 2.0654L137.126 3.5026ZM137.813 4.96C137.813 5.78096 137.54 6.33365 137.034 6.74125L138.288 8.29875C139.318 7.46902 139.813 6.31504 139.813 4.96H137.813ZM137.023 6.74998C136.481 7.19885 135.789 7.448 134.877 7.448V9.448C136.184 9.448 137.347 9.07848 138.299 8.29002L137.023 6.74998ZM134.877 7.448C134.028 7.448 133.274 7.21779 132.588 6.75515L131.47 8.41285C132.491 9.10221 133.636 9.448 134.877 9.448V7.448ZM132.602 6.76477C131.926 6.29141 131.361 5.58652 130.93 4.59391L129.096 5.39009C129.646 6.65881 130.425 7.68192 131.456 8.40323L132.602 6.76477ZM129.915 3.9968C128.511 4.13494 127.28 4.48634 126.267 5.09451L127.296 6.80949C127.989 6.39366 128.913 6.10506 130.111 5.9872L129.915 3.9968ZM126.283 5.08509C125.244 5.68205 124.501 6.56845 124.501 7.776H126.501C126.501 7.53289 126.611 7.20328 127.279 6.81891L126.283 5.08509ZM124.501 7.776C124.501 8.53569 124.825 9.18504 125.383 9.67784L126.707 8.17816C126.54 8.03096 126.501 7.9123 126.501 7.776H124.501ZM125.383 9.67784C125.844 10.0842 126.401 10.4142 127.031 10.681L127.811 8.83903C127.332 8.63651 126.971 8.41181 126.707 8.17816L125.383 9.67784ZM127.074 10.6977C127.668 10.9177 128.46 11.189 129.447 11.5107L130.067 9.60927C129.091 9.29102 128.326 9.02898 127.768 8.82225L127.074 10.6977ZM129.452 11.5124C131.027 12.0162 132.278 12.5006 133.221 12.9622L134.101 11.1658C133.038 10.646 131.687 10.1278 130.062 9.60757L129.452 11.5124ZM133.237 12.9697C134.097 13.3721 134.842 13.9579 135.476 14.7412L137.03 13.4828C136.214 12.4741 135.231 11.6945 134.085 11.1583L133.237 12.9697ZM135.492 14.7613C136.054 15.4195 136.373 16.3042 136.373 17.504H138.373C138.373 15.9305 137.945 14.5539 137.014 13.4627L135.492 14.7613ZM136.373 17.504C136.373 18.8255 135.928 19.9167 135.027 20.8358L136.455 22.2362C137.73 20.9366 138.373 19.3398 138.373 17.504H136.373ZM135.027 20.8359C134.089 21.7923 132.859 22.5372 131.3 23.0501L131.926 24.9499C133.738 24.3535 135.259 23.4557 136.455 22.2361L135.027 20.8359ZM131.311 23.0466C129.725 23.5486 128.088 23.8 126.397 23.8V25.8C128.29 25.8 130.13 25.518 131.915 24.9534L131.311 23.0466Z" fill="white"/>
</svg>
